<svg xmlns="http://www.w3.org/2000/svg" viewBox="0 0 93.77 29.43">
    <defs>
        <style>
            .cls-1{fill:#49c4e6;}
        </style>
    </defs>
    <title>raveOS_1</title>
    <g id="Слой_2" data-name="Слой 2">
        <g id="Layer_1" data-name="Layer 1">
            <path class="cls-1" d="M23.37,4.2,12.22,0,1.07,4.2A1.64,1.64,0,0,0,0,5.74v8.85A15,15,0,0,0,4,24.83l.24.26a15.44,15.44,0,0,0,8,4.34,15.39,15.39,0,0,0,8-4.34l.25-.26a15,15,0,0,0,4-10.24V5.74A1.64,1.64,0,0,0,23.37,4.2Zm-.75,11.37-.12.73-.4-.62a22.83,22.83,0,0,0-1.88-2.46c-.29-.34-.61-.7-1-1.11l-.7.7-.28-.27L13.73,17l3.65,3.65a1.07,1.07,0,1,1-1.51,1.51l-3.65-3.65L8.56,22.2a1.06,1.06,0,0,1-1.51,0,1.08,1.08,0,0,1,0-1.51L10.71,17l-4.5-4.5-.28.27-.71-.7c-.39.41-.71.77-1,1.11a25.75,25.75,0,0,0-1.88,2.46l-.4.61-.11-.72a6,6,0,0,1,.62-3.48,9.76,9.76,0,0,1,1.12-1.81,3.82,3.82,0,0,0-.13-.86,4.92,4.92,0,0,1-.14-1V8.11h.28a4.92,4.92,0,0,1,1,.14,3.9,3.9,0,0,0,.86.13A10.17,10.17,0,0,1,7.28,7.26a6.07,6.07,0,0,1,3.49-.61l.72.12-.61.39A23.43,23.43,0,0,0,8.41,9c-.35.3-.71.62-1.12,1l.71.71L7.72,11l4.5,4.5,4.5-4.5-.28-.28.71-.71c-.42-.39-.78-.71-1.12-1a23.43,23.43,0,0,0-2.47-1.87l-.62-.39.73-.12a6,6,0,0,1,3.48.61A9.51,9.51,0,0,1,19,8.38a3.82,3.82,0,0,0,.86-.13,5.11,5.11,0,0,1,1-.14h.29v.28a4.92,4.92,0,0,1-.15,1,5.43,5.43,0,0,0-.13.86A9.83,9.83,0,0,1,22,12.09h0A6,6,0,0,1,22.62,15.57Z"/>
            <path class="cls-1" d="M32.81,24.07a1,1,0,0,1-.12.51,1,1,0,0,1-.32.37,1.36,1.36,0,0,1-.47.22,2.07,2.07,0,0,1-.57.08h-2.2V20.69h2.44a.88.88,0,0,1,.43.1,1.23,1.23,0,0,1,.33.26,1.28,1.28,0,0,1,.21.38,1.23,1.23,0,0,1,.07.42,1.28,1.28,0,0,1-.16.63,1.08,1.08,0,0,1-.49.43,1.28,1.28,0,0,1,.62.41A1.22,1.22,0,0,1,32.81,24.07ZM30,21.44V22.6H31.2a.53.53,0,0,0,.38-.16.54.54,0,0,0,.16-.42.57.57,0,0,0-.15-.42.46.46,0,0,0-.35-.16Zm1.89,2.47a.64.64,0,0,0,0-.24.86.86,0,0,0-.11-.19.58.58,0,0,0-.17-.14.46.46,0,0,0-.21,0H30v1.2h1.31a.59.59,0,0,0,.23-.05.51.51,0,0,0,.31-.31A.62.62,0,0,0,31.91,23.91Z"/>
            <path class="cls-1" d="M33.49,25.91l.21,0,.17,0a.41.41,0,0,0,.16,0,.36.36,0,0,0,.13-.12,1.47,1.47,0,0,0,.11-.22,2.79,2.79,0,0,0,.12-.35l-1.33-3.37H34l.91,2.62.81-2.62h.81l-1.41,4a1.21,1.21,0,0,1-.42.58,1.17,1.17,0,0,1-.73.22h-.21a1.8,1.8,0,0,1-.22-.06Z"/>
            <path class="cls-1" d="M42.3,25.25v-3l-1.18,2.25h-.48l-1.18-2.25v3h-.88V20.69h1l1.35,2.59,1.36-2.59h.95v4.56Z"/>
            <path class="cls-1" d="M44.05,21.41v-.85h.87v.85Zm0,3.84V21.88h.87v3.37Z"/>
            <path class="cls-1" d="M48.82,25.25H48V23.36a.93.93,0,0,0-.14-.59.44.44,0,0,0-.39-.19.8.8,0,0,0-.26.05,1.35,1.35,0,0,0-.26.15.88.88,0,0,0-.21.22.85.85,0,0,0-.15.28v2h-.86V21.88h.78v.63A1.33,1.33,0,0,1,47,22a1.74,1.74,0,0,1,.8-.18,1,1,0,0,1,.51.12.81.81,0,0,1,.31.3,1.46,1.46,0,0,1,.15.43,2.45,2.45,0,0,1,0,.48Z"/>
            <path class="cls-1" d="M51.14,25.31a1.86,1.86,0,0,1-.73-.13,1.73,1.73,0,0,1-.56-.38,1.54,1.54,0,0,1-.36-.55,1.86,1.86,0,0,1-.13-.67,1.7,1.7,0,0,1,.13-.67,1.61,1.61,0,0,1,.35-.56A1.59,1.59,0,0,1,50.4,22a1.78,1.78,0,0,1,.74-.15,1.75,1.75,0,0,1,.74.15,1.66,1.66,0,0,1,.55.37,1.71,1.71,0,0,1,.35.56,1.82,1.82,0,0,1,.12.65v.16c0,.05,0,.1,0,.13h-2.6a1.06,1.06,0,0,0,.09.36.86.86,0,0,0,.2.26,1,1,0,0,0,.28.17,1.13,1.13,0,0,0,.32.05,1.07,1.07,0,0,0,.49-.12.75.75,0,0,0,.31-.33l.74.2a1.6,1.6,0,0,1-.6.64A1.89,1.89,0,0,1,51.14,25.31Zm.87-2a.85.85,0,0,0-.28-.6.81.81,0,0,0-.6-.23.87.87,0,0,0-.32.06,1,1,0,0,0-.27.17.83.83,0,0,0-.19.26,1,1,0,0,0-.09.34Z"/>
            <path class="cls-1" d="M55.43,22.63a1.6,1.6,0,0,0-.7.15.88.88,0,0,0-.44.43v2h-.86V21.88h.79v.72a1.69,1.69,0,0,1,.21-.31,2,2,0,0,1,.26-.24,1.4,1.4,0,0,1,.29-.16.72.72,0,0,1,.28-.05h.17Z"/>
            <path class="cls-1" d="M57.19,25.31a2.57,2.57,0,0,1-.83-.13,2.08,2.08,0,0,1-.7-.39l.32-.54a2.45,2.45,0,0,0,.61.33,1.47,1.47,0,0,0,.58.12.76.76,0,0,0,.4-.1.31.31,0,0,0,.15-.28.28.28,0,0,0-.17-.26,4.62,4.62,0,0,0-.57-.19c-.22-.06-.4-.12-.56-.18a1.07,1.07,0,0,1-.37-.19.68.68,0,0,1-.21-.24.81.81,0,0,1-.06-.33,1,1,0,0,1,.38-.81,1.42,1.42,0,0,1,.42-.23,1.72,1.72,0,0,1,.52-.07,2,2,0,0,1,.71.11,1.7,1.7,0,0,1,.61.35l-.35.52a1.91,1.91,0,0,0-.49-.28,1.45,1.45,0,0,0-.48-.09.7.7,0,0,0-.37.09.31.31,0,0,0-.15.29.2.2,0,0,0,0,.14.29.29,0,0,0,.11.11.76.76,0,0,0,.2.08l.31.09c.24.06.43.12.6.18a1.49,1.49,0,0,1,.4.21.66.66,0,0,1,.24.26,1,1,0,0,1,.07.37.92.92,0,0,1-.37.78A1.55,1.55,0,0,1,57.19,25.31Z"/>
            <path class="cls-1" d="M59.09,25.25v-.93h.71v.93Z"/>
            <path class="cls-1" d="M62.18,25.25V20.69h3.07v.77H63.07v1.18h1.81v.72H63.07v1.89Z"/>
            <path class="cls-1" d="M67.34,25.31a1.78,1.78,0,0,1-.74-.14,1.55,1.55,0,0,1-.55-.38,1.71,1.71,0,0,1-.35-.56,1.84,1.84,0,0,1-.12-.66,1.89,1.89,0,0,1,.12-.67,1.67,1.67,0,0,1,.35-.55A1.55,1.55,0,0,1,66.6,22a1.78,1.78,0,0,1,.74-.15,1.75,1.75,0,0,1,.74.15,1.64,1.64,0,0,1,.55.38,1.67,1.67,0,0,1,.35.55,1.89,1.89,0,0,1,.12.67,1.84,1.84,0,0,1-.12.66,1.56,1.56,0,0,1-.35.56,1.46,1.46,0,0,1-.55.38A1.75,1.75,0,0,1,67.34,25.31Zm-.88-1.74a1.07,1.07,0,0,0,.07.41,1.13,1.13,0,0,0,.19.32.83.83,0,0,0,.28.21.77.77,0,0,0,.34.07.81.81,0,0,0,.35-.07A.83.83,0,0,0,68,24.3a1.13,1.13,0,0,0,.19-.32,1.35,1.35,0,0,0,.06-.41,1.31,1.31,0,0,0-.06-.41,1.13,1.13,0,0,0-.19-.32.83.83,0,0,0-.28-.21.81.81,0,0,0-.35-.07.77.77,0,0,0-.34.07.85.85,0,0,0-.28.22,1,1,0,0,0-.19.32A1.05,1.05,0,0,0,66.46,23.57Z"/>
            <path class="cls-1" d="M71.69,22.63a1.57,1.57,0,0,0-.7.15.86.86,0,0,0-.45.43v2h-.86V21.88h.79v.72a1.34,1.34,0,0,1,.22-.31,1.48,1.48,0,0,1,.26-.24,1.18,1.18,0,0,1,.29-.16.65.65,0,0,1,.27-.05h.18Z"/>
            <path class="cls-1" d="M77.52,25.25v-3l-1.18,2.25h-.48l-1.18-2.25v3H73.8V20.69h1l1.35,2.59,1.36-2.59h1v4.56Z"/>
            <path class="cls-1" d="M79.27,21.41v-.85h.86v.85Zm0,3.84V21.88h.86v3.37Z"/>
            <path class="cls-1" d="M84,25.25h-.86V23.36a1,1,0,0,0-.14-.59.44.44,0,0,0-.39-.19.86.86,0,0,0-.27.05,1.28,1.28,0,0,0-.25.15,1.14,1.14,0,0,0-.22.22,1,1,0,0,0-.14.28v2h-.86V21.88h.78v.63a1.21,1.21,0,0,1,.54-.51,1.74,1.74,0,0,1,.8-.18,1,1,0,0,1,.51.12.89.89,0,0,1,.31.3,1.46,1.46,0,0,1,.15.43,2.45,2.45,0,0,1,0,.48Z"/>
            <path class="cls-1" d="M86.36,25.31a2,2,0,0,1-.74-.13,2,2,0,0,1-.56-.38,1.79,1.79,0,0,1-.48-1.22,1.7,1.7,0,0,1,.13-.67,1.48,1.48,0,0,1,.35-.56,1.59,1.59,0,0,1,.56-.38,1.78,1.78,0,0,1,.74-.15,1.75,1.75,0,0,1,.74.15,1.66,1.66,0,0,1,.55.37,1.71,1.71,0,0,1,.35.56,1.82,1.82,0,0,1,.12.65v.16c0,.05,0,.1,0,.13H85.5a1.06,1.06,0,0,0,.09.36.86.86,0,0,0,.2.26.88.88,0,0,0,.28.17,1.13,1.13,0,0,0,.32.05,1,1,0,0,0,.48-.12.72.72,0,0,0,.32-.33l.73.2a1.51,1.51,0,0,1-.59.64A1.89,1.89,0,0,1,86.36,25.31Zm.87-2a.85.85,0,0,0-.28-.6.81.81,0,0,0-.6-.23.86.86,0,0,0-.78.49,1,1,0,0,0-.09.34Z"/>
            <path class="cls-1" d="M90.65,22.63a1.6,1.6,0,0,0-.7.15.84.84,0,0,0-.44.43v2h-.86V21.88h.79v.72a1.69,1.69,0,0,1,.21-.31,2,2,0,0,1,.26-.24,1.4,1.4,0,0,1,.29-.16.69.69,0,0,1,.28-.05h.17Z"/>
            <path class="cls-1" d="M92.41,25.31a2.57,2.57,0,0,1-.83-.13,2.08,2.08,0,0,1-.7-.39l.32-.54a2.59,2.59,0,0,0,.6.33,1.56,1.56,0,0,0,.59.12.76.76,0,0,0,.4-.1.31.31,0,0,0,.15-.28.28.28,0,0,0-.17-.26,4.62,4.62,0,0,0-.57-.19,5.35,5.35,0,0,1-.56-.18,1.07,1.07,0,0,1-.37-.19.59.59,0,0,1-.21-.24.81.81,0,0,1-.06-.33,1,1,0,0,1,.1-.46.87.87,0,0,1,.28-.35,1.42,1.42,0,0,1,.42-.23,1.72,1.72,0,0,1,.52-.07,2.07,2.07,0,0,1,.71.11,1.7,1.7,0,0,1,.61.35l-.35.52a1.8,1.8,0,0,0-.5-.28,1.35,1.35,0,0,0-.47-.09.7.7,0,0,0-.37.09.31.31,0,0,0-.15.29.2.2,0,0,0,0,.14.29.29,0,0,0,.11.11.76.76,0,0,0,.2.08l.31.09.6.18a1.49,1.49,0,0,1,.4.21.63.63,0,0,1,.23.26.84.84,0,0,1,.08.37.92.92,0,0,1-.37.78A1.55,1.55,0,0,1,92.41,25.31Z"/>
            <path class="cls-1" d="M38.22,9.27a3.91,3.91,0,0,0-1.14-2.89,4.45,4.45,0,0,0-3.34-1.16H28.65V17.44h3.09V13.39H33l2.15,4.05h3.53L36,12.91A3.87,3.87,0,0,0,38.22,9.27Zm-4.63,1.42H31.74V8.05h2A1.32,1.32,0,1,1,33.59,10.69Z"/>
            <polygon class="cls-1" points="54.13 13.52 52.21 8.31 49 8.31 52.9 17.42 55.25 17.42 59.17 8.31 55.98 8.31 54.13 13.52"/>
            <path class="cls-1" d="M64.6,8.08a4.8,4.8,0,0,0-3.52,1.37,4.64,4.64,0,0,0-1.36,3.42A4.71,4.71,0,0,0,61,16.26a5,5,0,0,0,3.73,1.37,6.77,6.77,0,0,0,4-1.25l-1.14-2a4.9,4.9,0,0,1-2.76.84,2.09,2.09,0,0,1-2.23-1.43h6.51a8.29,8.29,0,0,0,.1-1.18A4.31,4.31,0,0,0,68,9.31,4.75,4.75,0,0,0,64.6,8.08Zm-2,3.74a1.9,1.9,0,0,1,2-1.41,1.86,1.86,0,0,1,1.9,1.41Z"/>
            <path class="cls-1" d="M76.71,5a6.21,6.21,0,0,0-4.55,1.83,6.15,6.15,0,0,0-1.83,4.5,6.1,6.1,0,0,0,1.82,4.48,6.65,6.65,0,0,0,9.12,0,6.1,6.1,0,0,0,1.83-4.48A6.25,6.25,0,0,0,76.71,5ZM79,13.65a3.25,3.25,0,0,1-4.55,0,3.17,3.17,0,0,1-.92-2.33A3.15,3.15,0,0,1,74.44,9a3.06,3.06,0,0,1,2.27-.94A3.11,3.11,0,0,1,79,9a3.19,3.19,0,0,1,1,2.33A3.17,3.17,0,0,1,79,13.65Z"/>
            <path class="cls-1" d="M91.38,10.54c-.32-.13-.8-.31-1.41-.52l-1.07-.4c-.65-.25-1-.55-1-.91s.47-.79,1.31-.79a5,5,0,0,1,2.86,1l1.44-2.35A6.58,6.58,0,0,0,89.18,5a4.9,4.9,0,0,0-3.27,1.08,3.38,3.38,0,0,0-1.28,2.69,3.42,3.42,0,0,0,2,3.17,16.43,16.43,0,0,0,1.55.63l1.1.36c.66.25,1,.57,1,.95,0,.57-.63.89-1.38.89a4.8,4.8,0,0,1-3.47-1.54l-1.55,2.27a6.43,6.43,0,0,0,5,2.11,5.33,5.33,0,0,0,3.52-1.09,3.53,3.53,0,0,0,1.32-2.81A3.36,3.36,0,0,0,91.38,10.54Z"/>
            <path class="cls-1" d="M44.17,8.06A4.75,4.75,0,1,0,46.42,17v.84h2.5V12.88h0s0-.05,0-.07A4.75,4.75,0,0,0,44.17,8.06Zm0,7a2.25,2.25,0,1,1,2.25-2.25A2.25,2.25,0,0,1,44.17,15.06Z"/>
        </g>
    </g>
</svg>