<svg width="1920" height="1431" viewBox="0 0 1920 1431" fill="none" xmlns="http://www.w3.org/2000/svg">
<g filter="url(#filter0_f)">
<circle cx="-1" cy="459" r="434" fill="url(#paint0_radial)" fill-opacity="0.15"/>
</g>
<g filter="url(#filter1_f)">
<circle cx="1918" cy="972" r="434" fill="url(#paint1_radial)" fill-opacity="0.15"/>
</g>
<mask id="mask0" mask-type="alpha" maskUnits="userSpaceOnUse" x="-83" y="850" width="497" height="497">
<circle r="248.5" transform="matrix(-1 0 0 1 165.5 1098.5)" fill="#C4C4C4"/>
</mask>
<g mask="url(#mask0)">
<path d="M823.815 850.375C841.812 838.027 859.623 818.661 877.626 791.95C902.8 754.69 924.344 709.008 943.378 668.748C956.286 641.434 968.465 615.655 979.564 597.429L980.272 596.277L979.303 597.292C958.773 619.373 939.302 658.851 918.644 700.676C899.555 739.376 879.825 779.398 857.172 810.281C844.93 827.01 833.06 839.352 820.931 848.04C807.41 857.734 793.396 862.751 779.31 862.955C760.154 863.222 741.581 854.627 723.617 846.314C710.146 840.082 696.212 833.635 682.245 831.074C653.88 825.883 628.366 828.147 604.209 837.975C582.949 846.682 562.562 861.203 540.068 883.65C524.127 899.923 509.118 917.084 495.112 935.049C480.216 950.167 466.439 966.383 452.835 982.196C423.561 1016.44 393.3 1051.84 353.156 1075.81C344.683 1080.88 335.77 1085.17 326.525 1088.63C295.993 1097.79 264.604 1094.3 234.084 1090.92C200.874 1087.24 169.504 1083.76 141.554 1096.56C105.873 1112.9 90.7253 1156.32 74.682 1202.27C63.3948 1234.62 51.8323 1267.76 32.55 1293.38C15.4009 1311.73 -4.97023 1326.78 -27.5514 1337.78C-46.5199 1347.23 -66.6009 1355.55 -87.8638 1364.37C-101.439 1370 -115.174 1375.7 -128.709 1381.75C-150.03 1390.2 -171.286 1399.3 -190.967 1410.14C-221.037 1426.74 -244.166 1445.91 -261.745 1468.7C-282.476 1495.68 -298.812 1525.11 -314.624 1553.59C-331.566 1584.1 -347.599 1612.86 -368.469 1638.84C-378.953 1652.01 -390.796 1664.05 -403.802 1674.74C-417.79 1686.17 -433.185 1695.77 -449.611 1703.29C-476.185 1715.54 -513.747 1719.42 -553.512 1723.52C-589.188 1727.19 -626.073 1731 -656.624 1741.26C-673.126 1746.81 -686.274 1753.7 -696.799 1762.32C-708.34 1771.57 -717.039 1783.89 -721.9 1797.86L-722.099 1798.4L-721.689 1798C-702.705 1779.98 -679.057 1766.88 -649.41 1757.97C-622.943 1750 -594.141 1746 -566.293 1742.14C-527.463 1736.75 -487.314 1731.17 -452.052 1714.81C-410.489 1695.53 -375.517 1663.96 -341.686 1633.42C-335.287 1627.65 -328.672 1621.68 -322.158 1615.92C-283.261 1581.57 -279.378 1567.67 -269.009 1530.48C-267.038 1523.4 -264.795 1515.38 -262.033 1506.23C-256.469 1487.51 -247.301 1470.06 -235.044 1454.86C-224.015 1441.1 -210.439 1428.72 -193.508 1417L-192.738 1416.47C-173.201 1403.07 -151.241 1391.98 -128.673 1381.88C-120.908 1378.8 -113.138 1375.8 -105.432 1372.83C-67.5329 1358.22 -28.3486 1343.13 5.2149 1320.23L5.31677 1320.16C15.8475 1312.84 25.1104 1303.85 32.7388 1293.53C34.3589 1291.8 35.9659 1290.03 37.5597 1288.23C54.0944 1269.4 66.8718 1248.79 80.3909 1226.96C94.0333 1204.94 108.134 1182.15 127.361 1159.22C142.79 1140.49 163.125 1126.41 186.091 1118.57C207.299 1111 229.389 1107.97 252.758 1104.76C277.221 1101.4 302.282 1097.97 326.597 1088.88C332.68 1087.06 338.609 1084.76 344.327 1082C370.704 1069.26 395.205 1051.27 419.241 1027.02C440.698 1005.37 459.921 980.699 478.488 956.85C484.069 949.689 489.718 942.482 495.423 935.236C508.574 921.627 522.944 909.253 538.354 898.268C556.776 885.302 576.746 874.69 597.8 866.676C618.892 858.648 641.069 853.825 663.591 852.369C682.856 851.193 702.386 855.501 721.171 859.719C743.964 864.802 767.529 870.038 790.401 865.306C802.42 862.597 813.779 857.522 823.815 850.375ZM978.557 598.487C967.682 616.625 955.702 641.918 943.079 668.653C924.057 708.905 902.481 754.541 877.354 791.82C848.338 834.866 819.844 858.813 790.256 865.022C767.533 869.752 744.006 864.523 721.206 859.478C702.348 855.276 682.853 850.946 663.549 852.114C641.015 853.579 618.828 858.409 597.724 866.445C576.648 874.464 556.659 885.09 538.222 898.075C523.475 908.584 509.691 920.383 497.032 933.332C510.554 916.081 525.022 899.592 540.369 883.943C562.825 861.489 583.17 846.98 604.431 838.323C628.503 828.469 653.968 826.206 682.276 831.386C696.204 833.94 710.108 840.391 723.583 846.604C741.573 854.932 760.177 863.522 779.398 863.277C793.552 863.077 807.619 858.039 821.186 848.315C833.341 839.592 845.215 827.231 857.488 810.498C880.155 779.588 899.896 739.558 918.985 700.858C939.266 659.575 958.452 620.676 978.557 598.487ZM-192.884 1416.41L-193.654 1416.93C-210.604 1428.65 -224.226 1441.06 -235.258 1454.84C-247.532 1470.07 -256.713 1487.55 -262.283 1506.3C-265.045 1515.46 -267.281 1523.49 -269.259 1530.56C-279.633 1567.66 -283.498 1581.57 -322.327 1615.87C-328.841 1621.62 -335.455 1627.6 -341.854 1633.37C-375.663 1663.89 -410.612 1695.45 -452.152 1714.71C-487.381 1731.05 -527.519 1736.62 -566.329 1742.01C-594.188 1745.88 -623.01 1749.88 -649.488 1757.86C-678.957 1766.71 -702.507 1779.71 -721.458 1797.56C-716.576 1783.86 -707.98 1771.78 -696.63 1762.68C-686.139 1754.09 -673.026 1747.22 -656.554 1741.68C-626.037 1731.44 -589.171 1727.63 -553.514 1723.96C-513.73 1719.86 -476.148 1715.98 -449.529 1703.7C-433.084 1696.17 -417.67 1686.56 -403.664 1675.11C-390.625 1664.4 -378.751 1652.35 -368.24 1639.15C-347.348 1613.15 -331.335 1584.34 -314.35 1553.86C-298.549 1525.4 -282.205 1495.98 -261.497 1469.01C-243.994 1446.21 -220.869 1427.06 -190.821 1410.53C-172.516 1400.69 -153.633 1391.97 -134.274 1384.42C-154.891 1393.7 -174.879 1404.07 -192.819 1416.38L-192.884 1416.41ZM30.921 1295.5C23.659 1304.94 14.9851 1313.22 5.20447 1320.02L5.1025 1320.09C-28.3762 1343.06 -67.5725 1358.11 -105.404 1372.67C-111.062 1374.89 -116.801 1377.06 -122.513 1379.3C-110.983 1374.25 -99.3057 1369.42 -87.6517 1364.56C-66.3811 1355.75 -46.308 1347.42 -27.328 1337.96C-5.56353 1327.35 14.1556 1312.97 30.921 1295.5ZM493.594 937.157C488.427 943.684 483.329 950.213 478.291 956.685C459.682 980.546 440.505 1005.18 419.059 1026.82C395.045 1051.06 370.571 1069.02 344.225 1081.75C339.901 1083.87 335.452 1085.72 330.903 1087.29C338.707 1084.16 346.255 1080.43 353.48 1076.13C393.658 1052.15 423.934 1016.72 453.22 982.465C466.187 967.205 479.421 951.728 493.594 937.157ZM154.018 1134.42C143.988 1141.35 134.96 1149.64 127.187 1159.04C107.957 1181.99 93.8446 1204.78 80.1909 1226.81C66.6753 1248.63 53.9171 1269.24 37.3859 1288.05C36.3501 1289.22 35.3077 1290.38 34.2587 1291.53C52.6835 1266.16 63.9374 1233.88 74.9459 1202.34C90.9396 1156.39 106.096 1113.08 141.672 1096.78C169.557 1084.01 200.878 1087.49 234.049 1091.16C263.344 1094.39 293.524 1097.73 322.888 1089.91C299.734 1098.02 275.97 1101.28 252.734 1104.46C229.499 1107.65 207.237 1110.69 186.007 1118.28C174.687 1122.24 163.933 1127.67 154.018 1134.42Z" fill="url(#paint2_linear)"/>
<path d="M552.945 882.963C551.563 883.77 550.196 884.595 548.844 885.439C540.791 890.34 533.663 896.619 527.785 903.989C522.769 910.44 518.861 917.681 516.22 925.414C510.934 940.475 509.808 957.228 508.719 973.428C506.681 1003.87 504.572 1035.36 475.689 1059.65C452.895 1078.82 418.972 1098.86 382.626 1114.65C344.507 1131.21 307.591 1141.55 278.703 1143.76C258.864 1145.28 238.422 1142.08 218.654 1138.99C200.544 1136.15 181.813 1133.23 163.936 1134.04C154.972 1134.38 146.09 1135.88 137.516 1138.52C128.406 1141.37 119.821 1145.69 112.094 1151.3C89.0461 1167.87 72.5681 1191.75 56.6194 1214.81C46.5219 1229.43 36.0806 1244.54 24.0167 1257.8C10.4707 1272.65 -3.67599 1283.51 -19.2552 1290.94C-49.101 1305.17 -81.4653 1310.09 -112.773 1314.86C-149.608 1320.49 -187.617 1326.28 -223.075 1346.98L-224.31 1347.7C-256.416 1366.81 -285.241 1391.3 -303.386 1414.9C-320.504 1437.14 -320.971 1451.61 -321.59 1469.95C-321.898 1479.08 -322.242 1489.44 -324.801 1502.13L-324.859 1502.41L-324.618 1502.26C-314.642 1494.12 -305.713 1483.87 -297.269 1471.04C-289.732 1459.58 -283.244 1447.07 -276.972 1434.97C-262.03 1406.14 -246.569 1376.34 -215.166 1356.14C-196.934 1344.43 -177.782 1336.87 -154.774 1332.31C-134.492 1328.29 -114.461 1327.3 -93.2969 1326.16C-71.3128 1325.02 -48.5787 1323.83 -25.6374 1319.08C36.2609 1306.09 69.0302 1254.15 100.697 1203.93C106.448 1194.78 112.414 1185.34 118.379 1176.44C120.928 1172.64 123.227 1169.12 125.248 1166.01C141.582 1141.02 144.982 1135.81 174.771 1138.44C188.208 1139.64 199.426 1142.75 210.3 1145.74C228.907 1150.91 246.479 1155.8 273.028 1150.56C303.018 1144.62 336.047 1134.75 368.529 1121.98C399.535 1109.83 429.519 1095.22 458.194 1078.29C474.197 1068.75 486.469 1059.47 496.842 1049.09C508.368 1037.55 517.784 1024.07 524.663 1009.28C531.411 995.056 533.37 978.164 535.3 961.797C537.759 940.941 540.083 921.242 551.256 906.426C558.687 896.563 569.194 889.432 583.351 884.604C595.843 880.355 609.435 878.405 622.569 876.526C627.766 875.807 632.657 875.082 637.453 874.25C670.898 868.443 700.99 857.529 732.838 845.973C740.08 843.342 747.571 840.623 755.06 837.999C768.511 833.271 786.918 828.66 808.212 823.324C876.693 806.183 970.478 782.72 987.874 730.41L987.956 730.154L987.723 730.29C961.684 745.727 932.358 760.234 898.06 774.634C867.417 787.502 835.524 799.2 804.677 810.508C794.938 814.076 784.866 817.769 774.941 821.457C747.351 831.719 715.715 837.768 682.185 844.204C636.178 853.05 588.618 862.132 552.945 882.963ZM432.376 1089.75C449.034 1080.02 463.904 1069.81 475.764 1059.84C504.728 1035.49 506.831 1003.97 508.883 973.471C509.969 957.285 511.091 940.545 516.37 925.512C519.017 917.788 522.932 910.559 527.955 904.121C533.817 896.769 540.927 890.505 548.958 885.615C585.002 863.039 634.454 853.548 682.246 844.388C715.79 837.956 747.47 831.882 775.033 821.635C784.958 817.947 795.039 814.249 804.77 810.686C835.617 799.378 867.514 787.688 898.165 774.816C932.368 760.449 961.633 745.976 987.621 730.592C981.327 749.183 965.331 764.129 944.269 776.427C906.376 798.554 852.069 812.144 808.16 823.135C786.86 828.462 768.471 833.063 754.985 837.811C747.493 840.449 740.01 843.163 732.764 845.785C700.924 857.336 670.849 868.24 637.417 874.051C632.622 874.882 627.729 875.586 622.534 876.326C609.382 878.216 595.812 880.142 583.259 884.426C569.052 889.248 558.525 896.426 551.065 906.317C539.859 921.176 537.517 940.863 535.071 961.781C533.139 978.125 531.154 995.033 524.451 1009.2C517.573 1023.94 508.169 1037.37 496.666 1048.87C486.31 1059.24 474.042 1068.51 458.057 1078.04C429.392 1094.97 399.42 1109.57 368.427 1121.73C335.959 1134.5 302.918 1144.39 272.957 1150.3C246.448 1155.53 228.904 1150.65 210.324 1145.48C199.475 1142.47 188.227 1139.37 174.784 1138.17C144.873 1135.53 141.465 1140.74 125.079 1165.82C123.058 1168.93 120.754 1172.44 118.205 1176.24C112.231 1185.15 106.284 1194.6 100.522 1203.73C68.8804 1253.91 36.2046 1305.78 -25.6786 1318.79C-48.6205 1323.6 -71.346 1324.78 -93.3129 1325.91C-114.511 1327.01 -134.525 1328.06 -154.821 1332.07C-177.82 1336.63 -197.032 1344.22 -215.295 1355.94C-246.747 1376.15 -262.21 1405.99 -277.173 1434.84C-283.442 1446.93 -289.93 1459.44 -297.463 1470.89C-305.828 1483.62 -314.692 1493.76 -324.531 1501.88C-322.031 1489.3 -321.669 1479.02 -321.389 1469.94C-320.772 1451.64 -320.295 1437.18 -303.223 1415C-285.09 1391.42 -256.282 1366.94 -224.202 1347.85L-222.984 1347.14C-187.578 1326.46 -149.595 1320.69 -112.843 1315.1C-81.5214 1310.33 -49.1398 1305.4 -19.2767 1291.16C-3.67158 1283.71 10.5025 1272.87 24.0592 1257.97C36.1404 1244.71 46.5817 1229.59 56.6828 1214.96C72.6178 1191.9 89.0887 1168.05 112.11 1151.49C119.822 1145.89 128.39 1141.58 137.481 1138.73C146.032 1136.11 154.89 1134.61 163.83 1134.28C181.761 1133.46 200.532 1136.39 218.579 1139.22C238.36 1142.31 258.811 1145.51 278.678 1143.99C307.589 1141.78 344.521 1131.44 382.663 1114.87C399.712 1107.48 416.312 1099.09 432.376 1089.75Z" fill="url(#paint3_linear)"/>
<path d="M-92.8563 1301.06C-72.6637 1296.21 -52.8442 1289.92 -33.5498 1282.24C-3.29474 1270.28 25.6899 1255.33 52.9723 1237.61C79.5349 1220.35 103.376 1200.88 121.927 1181.35C135.602 1166.96 147.994 1156.03 159.799 1147.96C170.801 1140.32 182.939 1134.46 195.766 1130.61C220.082 1123.37 246.652 1123.08 287.994 1123.19C322.089 1123.19 356.132 1120.51 389.807 1115.18C409.784 1112.1 430.453 1108.16 454.17 1102.86C480.144 1098.75 507.178 1093.57 535.675 1087.14C552.443 1085.22 571.445 1083.57 591.769 1081.77C648.766 1076.69 713.395 1070.98 767.981 1057.65C797.832 1050.35 821.1 1041.68 839.114 1031.15C848.192 1026 856.487 1019.58 863.748 1012.08C870.289 1005.28 875.324 997.176 878.526 988.298L878.586 988.12L878.401 988.164C837.487 999.774 796.318 1012.52 756.499 1024.85C705.2 1040.74 652.141 1057.17 599.429 1071.21C577.31 1077.1 556.097 1082.34 535.648 1086.94C517.468 1088.99 501.886 1091.28 490.029 1094.19C477.223 1097.36 465.338 1100.16 454.155 1102.71C448.976 1103.52 443.835 1104.29 438.733 1105.02C399.761 1110.57 358.676 1109.82 318.974 1109.08C275.744 1108.29 231.046 1107.47 189.612 1114.9C171.566 1118.15 157.523 1124.33 145.442 1134.41C134.63 1143.42 126.576 1154.51 118.145 1166.24C110.731 1176.49 103.073 1187.09 92.8394 1197.41C76.0042 1214.39 53.2708 1229.9 25.141 1243.54C-0.866359 1256.17 -30.2414 1266.64 -62.1679 1274.68C-123.967 1290.23 -187.765 1294.42 -232.841 1285.85C-248.457 1282.89 -263.553 1279.39 -278.139 1276.05C-322.016 1265.9 -363.475 1256.3 -411.922 1262.33C-425.528 1264.02 -478.072 1272.28 -526.946 1283.87L-526.995 1283.88C-554.939 1290.51 -577.059 1297.13 -592.74 1303.59C-611.923 1311.45 -621.447 1319.05 -621.044 1326.16L-621.017 1326.27L-620.9 1326.25C-592.48 1319.76 -562.971 1309.42 -534.439 1299.46C-486.667 1282.75 -437.27 1265.47 -388.974 1264.31C-349.12 1263.34 -311.591 1275.75 -275.235 1287.76C-255.68 1294.16 -235.366 1300.89 -214.898 1305.38C-188.524 1311.23 -158.783 1311.91 -126.507 1307.42C-115.47 1305.89 -104.253 1303.77 -92.8563 1301.06ZM203.127 1128.45C200.617 1129.05 198.152 1129.71 195.703 1130.43C182.86 1134.29 170.707 1140.16 159.692 1147.81C147.87 1155.9 135.429 1166.83 121.785 1181.23C103.244 1200.76 79.408 1220.2 52.9038 1237.45C25.6307 1255.15 -3.3431 1270.09 -33.5862 1282.04C-65.3192 1294.58 -96.5887 1303.05 -126.543 1307.19C-158.798 1311.67 -188.509 1310.99 -214.871 1305.14C-235.297 1300.62 -255.565 1293.91 -275.221 1287.43C-311.587 1275.42 -349.179 1263.01 -389.023 1263.97C-437.344 1265.16 -486.765 1282.42 -534.547 1299.14C-563.015 1309.1 -592.493 1319.4 -620.871 1325.89C-621.152 1318.91 -611.684 1311.38 -592.687 1303.64C-577.017 1297.22 -554.905 1290.56 -526.971 1283.94L-526.923 1283.92C-478.06 1272.33 -425.526 1264.08 -411.918 1262.39C-363.481 1256.36 -322.048 1265.94 -278.139 1276.09C-263.544 1279.47 -248.451 1282.96 -232.831 1285.89C-189.445 1294.1 -128.694 1290.58 -69.0895 1276.44C-66.7479 1275.88 -64.403 1275.33 -62.0549 1274.77C-30.1186 1266.73 -0.724196 1256.25 25.2929 1243.62C53.4009 1229.97 76.2024 1214.45 93.045 1197.46C103.295 1187.12 110.954 1176.52 118.365 1166.26C126.886 1154.52 134.846 1143.46 145.631 1134.46C157.636 1124.42 171.696 1118.23 189.708 1115C231.113 1107.58 275.811 1108.4 319.031 1109.19C358.753 1109.92 399.827 1110.68 438.819 1105.12C442.909 1104.54 447.026 1103.93 451.17 1103.29C428.708 1108.25 408.978 1111.99 389.863 1114.94C356.197 1120.27 322.164 1122.95 288.079 1122.94C250.795 1122.91 225.547 1123.14 203.129 1128.46L203.127 1128.45ZM878.265 988.412C875.066 997.192 870.069 1005.21 863.592 1011.95C856.347 1019.43 848.07 1025.84 839.012 1030.98C821.017 1041.5 797.769 1050.17 767.935 1057.45C713.361 1070.79 648.749 1076.49 591.747 1081.59C572.137 1083.32 553.769 1084.96 537.423 1086.76C557.34 1082.25 577.967 1077.14 599.468 1071.42C652.199 1057.37 705.287 1040.93 756.547 1025.06C796.308 1012.74 837.43 1000.06 878.267 988.421L878.265 988.412ZM491.401 1094.08C502.677 1091.41 517.125 1089.27 533.865 1087.36C507.156 1093.35 481.753 1098.25 457.276 1102.17C467.578 1099.85 478.456 1097.27 490.104 1094.38L491.398 1094.07L491.401 1094.08Z" fill="url(#paint4_linear)"/>
<path d="M89.7174 1150.79C108.776 1142.54 128.401 1135.67 148.441 1130.22C179.814 1121.62 211.969 1116.16 244.427 1113.95C276.031 1111.79 306.781 1113.03 333.344 1117.51C352.925 1120.81 369.396 1122.1 383.683 1121.47C397.067 1120.97 410.288 1118.36 422.857 1113.73C446.647 1104.92 468.068 1089.19 501.058 1064.28C528.316 1043.8 557.143 1025.49 587.271 1009.53C605.097 999.998 623.989 990.734 646.135 980.727C669.369 968.412 694.097 956.319 720.739 944.34C735.303 935.807 751.488 925.715 768.819 914.95C817.442 884.777 872.544 850.525 924.197 828.402C952.448 816.31 976.257 809.265 996.988 806.868C1007.34 805.533 1017.83 805.683 1028.13 807.315C1037.45 808.826 1046.34 812.282 1054.23 817.457L1054.39 817.564L1054.21 817.64C1014.53 832.929 973.954 847.46 934.712 861.519C884.156 879.629 831.862 898.355 781.283 918.787C760.062 927.365 739.954 935.917 720.838 944.515C705.075 953.8 691.241 961.328 680.009 966.118C667.871 971.28 656.687 976.18 646.213 980.856C641.585 983.318 637.011 985.789 632.493 988.269C598 1007.24 565.604 1032.52 534.3 1056.95C500.209 1083.54 464.964 1111.04 427.374 1129.99C410.99 1138.23 396.051 1141.72 380.343 1140.92C366.287 1140.21 353.18 1136.18 339.398 1131.87C327.315 1128.12 314.823 1124.24 300.441 1122.14C276.785 1118.68 249.294 1119.93 218.609 1125.92C190.231 1131.44 160.453 1140.71 130.097 1153.45C71.3464 1178.14 17.8236 1213.11 -13.0733 1247.03C-23.7792 1258.78 -33.7476 1270.64 -43.4024 1282.07C-72.3932 1316.54 -99.7716 1349.12 -142.129 1373.39C-154.027 1380.21 -200.997 1405.16 -247.035 1425.25L-247.08 1425.27C-273.406 1436.75 -295.066 1444.75 -311.486 1449C-331.546 1454.23 -343.722 1453.88 -347.67 1447.95L-347.718 1447.84L-347.608 1447.8C-320.988 1435.91 -291.182 1426.46 -262.389 1417.29C-214.156 1401.96 -164.287 1386.1 -124.973 1358.02C-92.5261 1334.86 -69.9724 1302.4 -48.1175 1270.96C-36.324 1254.1 -24.1253 1236.52 -10.4532 1220.64C7.12099 1200.12 30.4914 1181.72 58.9914 1165.92C68.7388 1160.52 78.9807 1155.48 89.7174 1150.79ZM430.039 1111.04C427.674 1112.07 425.308 1113.02 422.915 1113.91C410.328 1118.54 397.089 1121.15 383.687 1121.65C369.377 1122.28 352.861 1121.01 333.304 1117.69C306.749 1113.21 276.017 1111.98 244.467 1114.11C212.025 1116.34 179.887 1121.79 148.53 1130.4C115.629 1139.44 85.5407 1151.45 59.1056 1166.13C30.6198 1181.91 7.27706 1200.31 -10.2919 1220.81C-23.9062 1236.7 -36.0801 1254.24 -47.907 1271.22C-69.7711 1302.66 -92.3718 1335.17 -124.809 1358.32C-164.159 1386.39 -214.038 1402.28 -262.281 1417.61C-291.027 1426.74 -320.784 1436.21 -347.371 1448.06C-343.401 1453.82 -331.309 1454.15 -311.474 1448.93C-295.087 1444.65 -273.411 1436.69 -247.095 1425.21L-247.049 1425.19C-201.017 1405.12 -154.056 1380.17 -142.162 1373.34C-99.814 1349.07 -72.4418 1316.52 -43.4275 1282.04C-33.7887 1270.57 -23.8163 1258.72 -13.0893 1246.99C16.6735 1214.37 67.3563 1180.7 123.509 1156.21C125.715 1155.24 127.924 1154.28 130.136 1153.32C160.5 1140.57 190.297 1131.29 218.684 1125.76C249.355 1119.79 276.91 1118.51 300.58 1121.98C314.983 1124.09 327.476 1127.97 339.563 1131.72C353.423 1135.98 366.434 1140.05 380.459 1140.76C396.09 1141.58 411.051 1138.09 427.39 1129.85C464.953 1110.92 500.198 1083.42 534.279 1056.83C565.602 1032.39 597.989 1007.11 632.5 988.135C636.118 986.143 639.776 984.158 643.475 982.182C622.536 991.706 604.516 1000.57 587.46 1009.69C557.341 1025.65 528.524 1043.95 501.275 1064.42C471.482 1086.84 451.154 1101.82 430.035 1111.03L430.039 1111.04ZM1053.96 817.523C1046.13 812.424 1037.32 809.016 1028.09 807.519C1017.8 805.889 1007.34 805.736 997.009 807.066C976.297 809.455 952.506 816.492 924.277 828.585C872.629 850.695 817.549 884.949 768.91 915.107C752.189 925.497 736.52 935.221 722.368 943.597C741.002 935.242 760.564 926.939 781.19 918.599C831.787 898.158 884.109 879.42 934.628 861.327C973.815 847.292 1014.31 832.739 1053.95 817.514L1053.96 817.523ZM681.172 965.381C691.795 960.748 704.629 953.777 719.164 945.256C694.212 956.509 670.953 967.841 649.03 979.41C658.661 975.078 668.909 970.609 679.957 965.922L681.176 965.391L681.172 965.381Z" fill="url(#paint5_linear)"/>
<path d="M802.301 895.391C820.297 883.044 838.109 863.677 856.112 836.966C881.285 799.706 902.829 754.024 921.863 713.764C934.772 686.451 946.951 660.671 958.049 642.445L958.758 641.293L957.788 642.308C937.259 664.389 917.788 703.867 897.129 745.692C878.04 784.392 858.31 824.414 835.658 855.298C823.415 872.026 811.545 884.368 799.416 893.056C785.895 902.75 771.881 907.768 757.795 907.971C738.639 908.238 720.066 899.643 702.102 891.33C688.631 885.098 674.697 878.651 660.73 876.09C632.366 870.899 606.851 873.163 582.695 882.991C561.434 891.698 541.047 906.219 518.553 928.666C502.613 944.939 487.604 962.1 473.598 980.065C458.701 995.183 444.924 1011.4 431.321 1027.21C402.046 1061.46 371.785 1096.86 331.641 1120.82C323.169 1125.89 314.255 1130.18 305.01 1133.65C274.479 1142.8 243.089 1139.32 212.569 1135.94C179.36 1132.26 147.989 1128.78 120.04 1141.58C84.358 1157.91 69.2106 1201.34 53.1674 1247.29C41.8802 1279.64 30.3177 1312.77 11.0354 1338.4C-6.1138 1356.75 -26.4849 1371.8 -49.0661 1382.8C-68.0346 1392.25 -88.1156 1400.56 -109.378 1409.39C-122.954 1415.02 -136.688 1420.71 -150.224 1426.77C-171.545 1435.22 -192.8 1444.32 -212.482 1455.16C-242.552 1471.76 -265.681 1490.93 -283.26 1513.72C-303.991 1540.7 -320.327 1570.13 -336.138 1598.6C-353.081 1629.12 -369.114 1657.87 -389.984 1683.85C-400.468 1697.03 -412.311 1709.06 -425.317 1719.76C-439.305 1731.19 -454.7 1740.78 -471.126 1748.3C-497.699 1760.56 -535.262 1764.44 -575.027 1768.54C-610.703 1772.21 -647.588 1776.01 -678.139 1786.28C-694.641 1791.82 -707.788 1798.71 -718.314 1807.33C-729.854 1816.59 -738.553 1828.91 -743.415 1842.88L-743.613 1843.41L-743.203 1843.02C-724.22 1824.99 -700.572 1811.9 -670.925 1802.99C-644.458 1795.02 -615.656 1791.02 -587.808 1787.15C-548.978 1781.76 -508.829 1776.19 -473.567 1759.82C-432.004 1740.55 -397.032 1708.98 -363.201 1678.44C-356.801 1672.66 -350.187 1666.69 -343.673 1660.94C-304.776 1626.59 -300.893 1612.68 -290.523 1575.5C-288.553 1568.42 -286.309 1560.4 -283.548 1551.24C-277.983 1532.53 -268.815 1515.08 -256.559 1499.88C-245.53 1486.11 -231.953 1473.73 -215.023 1462.02L-214.253 1461.49C-194.716 1448.08 -172.755 1437 -150.188 1426.89C-142.423 1423.81 -134.652 1420.82 -126.947 1417.84C-89.0476 1403.23 -49.8633 1388.14 -16.2997 1365.25L-16.1979 1365.18C-5.66718 1357.86 3.59575 1348.86 11.2241 1338.55C12.8443 1336.82 14.4512 1335.05 16.045 1333.24C32.5798 1314.42 45.3571 1293.81 58.8763 1271.97C72.5187 1249.95 86.6195 1227.17 105.846 1204.23C121.276 1185.5 141.61 1171.43 164.577 1163.59C185.784 1156.02 207.874 1152.99 231.243 1149.78C255.706 1146.42 280.767 1142.99 305.082 1133.9C311.165 1132.08 317.094 1129.77 322.812 1127.01C349.189 1114.28 373.69 1096.29 397.726 1072.03C419.183 1050.38 438.406 1025.72 456.973 1001.87C462.554 994.705 468.203 987.498 473.909 980.252C487.059 966.643 501.43 954.269 516.839 943.284C535.261 930.318 555.231 919.706 576.285 911.692C597.378 903.664 619.554 898.841 642.076 897.385C661.342 896.209 680.871 900.517 699.656 904.735C722.45 909.818 746.014 915.054 768.886 910.322C780.905 907.613 792.265 902.538 802.301 895.391ZM957.042 643.503C946.167 661.641 934.188 686.935 921.565 713.669C902.542 753.922 880.967 799.558 855.84 836.836C826.823 879.882 798.329 903.83 768.741 910.038C746.018 914.768 722.491 909.539 699.691 904.494C680.834 900.292 661.338 895.962 642.034 897.13C619.5 898.595 597.313 903.425 576.21 911.461C555.133 919.48 535.144 930.106 516.707 943.091C501.96 953.6 488.176 965.399 475.518 978.348C489.039 961.097 503.507 944.608 518.854 928.959C541.31 906.505 561.655 891.996 582.917 883.339C606.989 873.485 632.454 871.222 660.761 876.402C674.69 878.956 688.594 885.407 702.068 891.62C720.059 899.948 738.662 908.539 757.883 908.293C772.038 908.093 786.105 903.056 799.671 893.331C811.826 884.608 823.7 872.247 835.973 855.514C858.64 824.604 878.382 784.574 897.471 745.874C917.752 704.591 936.937 665.693 957.042 643.503ZM-214.398 1461.42L-215.169 1461.95C-232.118 1473.66 -245.74 1486.07 -256.772 1499.86C-269.047 1515.08 -278.227 1532.56 -283.798 1551.31C-286.56 1560.47 -288.796 1568.5 -290.774 1575.57C-301.148 1612.67 -305.012 1626.59 -343.841 1660.89C-350.355 1666.64 -356.969 1672.61 -363.369 1678.38C-397.177 1708.91 -432.127 1740.47 -473.667 1759.73C-508.895 1776.07 -549.033 1781.64 -587.844 1787.03C-615.703 1790.9 -644.524 1794.9 -671.003 1802.87C-700.471 1811.73 -724.021 1824.72 -742.973 1842.57C-738.091 1828.87 -729.494 1816.8 -718.145 1807.7C-707.653 1799.1 -694.54 1792.24 -678.068 1786.7C-647.551 1776.45 -610.685 1772.65 -575.029 1768.97C-535.244 1764.88 -497.663 1761 -471.044 1748.71C-454.598 1741.18 -439.184 1731.57 -425.178 1720.13C-412.139 1709.42 -400.266 1697.36 -389.755 1684.16C-368.862 1658.17 -352.849 1629.36 -335.864 1598.88C-320.064 1570.42 -303.72 1541 -283.012 1514.03C-265.509 1491.23 -242.384 1472.08 -212.336 1455.54C-194.031 1445.71 -175.147 1436.99 -155.788 1429.44C-176.405 1438.72 -196.394 1449.08 -214.334 1461.39L-214.398 1461.42ZM9.40634 1340.51C2.14438 1349.96 -6.52954 1358.23 -16.3102 1365.04L-16.4121 1365.11C-49.8909 1388.08 -89.0871 1403.13 -126.918 1417.69C-132.577 1419.91 -138.316 1422.08 -144.027 1424.32C-132.498 1419.27 -120.82 1414.44 -109.166 1409.58C-87.8957 1400.76 -67.8226 1392.44 -48.8426 1382.98C-27.0782 1372.36 -7.35907 1357.99 9.40634 1340.51ZM472.079 982.173C466.912 988.7 461.814 995.229 456.776 1001.7C438.168 1025.56 418.99 1050.2 397.544 1071.84C373.531 1096.08 349.056 1114.04 322.71 1126.77C318.386 1128.88 313.937 1130.73 309.389 1132.31C317.192 1129.18 324.741 1125.45 331.965 1121.15C372.143 1097.16 402.419 1061.73 431.705 1027.48C444.672 1012.22 457.907 996.745 472.079 982.173ZM132.504 1179.43C122.474 1186.37 113.445 1194.66 105.672 1204.05C86.4421 1227.01 72.33 1249.8 58.6762 1271.83C45.1607 1293.64 32.4024 1314.26 15.8712 1333.06C14.8355 1334.24 13.793 1335.4 12.7441 1336.54C31.1688 1311.17 42.4228 1278.9 53.4312 1247.36C69.4249 1201.41 84.5814 1158.09 120.157 1141.8C148.042 1129.03 179.363 1132.51 212.534 1136.18C241.829 1139.4 272.009 1142.75 301.374 1134.93C278.219 1143.03 254.455 1146.3 231.22 1149.48C207.984 1152.66 185.723 1155.71 164.493 1163.3C153.173 1167.26 142.419 1172.68 132.504 1179.43Z" fill="url(#paint6_linear)"/>
<path d="M531.429 927.979C530.048 928.786 528.681 929.611 527.328 930.455C519.275 935.356 512.147 941.635 506.269 949.005C501.253 955.456 497.345 962.697 494.705 970.43C489.418 985.491 488.293 1002.24 487.203 1018.44C485.165 1048.89 483.057 1080.38 454.173 1104.66C431.38 1123.83 397.457 1143.87 361.111 1159.67C322.991 1176.23 286.076 1186.56 257.188 1188.77C237.348 1190.29 216.906 1187.1 197.138 1184C179.028 1181.17 160.298 1178.24 142.42 1179.06C133.456 1179.39 124.574 1180.9 116.001 1183.53C106.891 1186.39 98.3049 1190.71 90.5781 1196.32C67.5305 1212.89 51.0524 1236.77 35.1038 1259.83C25.0063 1274.44 14.565 1289.56 2.50106 1302.81C-11.0449 1317.67 -25.1916 1328.52 -40.7709 1335.95C-70.6167 1350.19 -102.981 1355.11 -134.289 1359.87C-171.124 1365.51 -209.133 1371.29 -244.59 1392L-245.825 1392.72C-277.931 1411.83 -306.757 1436.31 -324.902 1459.91C-342.019 1482.16 -342.486 1496.63 -343.106 1514.96C-343.413 1524.1 -343.758 1534.45 -346.317 1547.14L-346.375 1547.42L-346.133 1547.28C-336.157 1539.14 -327.228 1528.89 -318.785 1516.06C-311.248 1504.6 -304.76 1492.09 -298.488 1479.98C-283.546 1451.15 -268.085 1421.35 -236.681 1401.16C-218.449 1389.45 -199.298 1381.89 -176.29 1377.33C-156.007 1373.31 -135.977 1372.31 -114.813 1371.18C-92.8284 1370.03 -70.0943 1368.85 -47.153 1364.09C14.7453 1351.11 47.5146 1299.17 79.1811 1248.94C84.9327 1239.8 90.8986 1230.36 96.8633 1221.46C99.4126 1217.65 101.712 1214.13 103.733 1211.03C120.066 1186.03 123.466 1180.83 153.255 1183.46C166.693 1184.65 177.91 1187.76 188.784 1190.76C207.392 1195.93 224.963 1200.82 251.512 1195.57C281.503 1189.64 314.531 1179.77 347.013 1167C378.019 1154.85 408.003 1140.24 436.679 1123.31C452.681 1113.77 464.953 1104.48 475.326 1094.11C486.852 1082.56 496.268 1069.09 503.147 1054.3C509.895 1040.07 511.854 1023.18 513.785 1006.81C516.244 985.958 518.567 966.258 529.74 951.442C537.171 941.579 547.679 934.448 561.836 929.62C574.328 925.371 587.919 923.422 601.054 921.542C606.25 920.823 611.142 920.098 615.937 919.266C649.382 913.459 679.475 902.545 711.323 890.989C718.564 888.358 726.056 885.64 733.544 883.015C746.995 878.287 765.402 873.676 786.697 868.34C855.177 851.199 948.962 827.736 966.358 775.426L966.44 775.17L966.207 775.306C940.168 790.743 910.842 805.25 876.544 819.65C845.901 832.518 814.009 844.216 783.162 855.524C773.422 859.092 763.35 862.785 753.425 866.473C725.836 876.736 694.199 882.784 660.669 889.22C614.663 898.066 567.103 907.148 531.429 927.979ZM410.86 1134.76C427.518 1125.03 442.388 1114.82 454.248 1104.85C483.213 1080.5 485.315 1048.98 487.367 1018.49C488.453 1002.3 489.575 985.561 494.855 970.528C497.501 962.804 501.416 955.575 506.439 949.138C512.302 941.785 519.411 935.521 527.443 930.631C563.487 908.055 612.938 898.564 660.731 889.404C694.274 882.972 725.954 876.898 753.518 866.651C763.442 862.963 773.523 859.265 783.254 855.702C814.101 844.394 845.999 832.704 876.65 819.832C910.852 805.465 940.117 790.993 966.106 775.608C959.811 794.199 943.815 809.145 922.753 821.444C884.861 843.57 830.553 857.16 786.644 868.151C765.344 873.479 746.955 878.079 733.469 882.828C725.977 885.465 718.495 888.179 711.248 890.801C679.409 902.352 649.333 913.256 615.902 919.067C611.106 919.898 606.213 920.602 601.018 921.343C587.867 923.232 574.296 925.158 561.744 929.442C547.537 934.264 537.01 941.442 529.55 951.333C518.343 966.192 516.001 985.879 513.555 1006.8C511.623 1023.14 509.638 1040.05 502.935 1054.21C496.057 1068.95 486.654 1082.38 475.15 1093.89C464.795 1104.25 452.526 1113.52 436.541 1123.05C407.876 1139.98 377.904 1154.59 346.911 1166.74C314.443 1179.52 281.402 1189.41 251.441 1195.31C224.932 1200.54 207.388 1195.67 188.808 1190.5C177.96 1187.49 166.711 1184.39 153.269 1183.18C123.358 1180.55 119.95 1185.75 103.564 1210.84C101.542 1213.94 99.2383 1217.45 96.689 1221.26C90.7156 1230.17 84.7685 1239.61 79.0069 1248.75C47.3647 1298.93 14.689 1350.79 -47.1942 1363.8C-70.1361 1368.62 -92.8616 1369.8 -114.828 1370.93C-136.027 1372.03 -156.041 1373.07 -176.337 1377.09C-199.336 1381.65 -218.548 1389.24 -236.811 1400.96C-268.263 1421.17 -283.726 1451 -298.689 1479.86C-304.957 1491.95 -311.445 1504.46 -318.979 1515.91C-327.344 1528.63 -336.208 1538.78 -346.046 1546.89C-343.547 1534.32 -343.185 1524.03 -342.905 1514.95C-342.288 1496.65 -341.81 1482.2 -324.739 1460.02C-306.605 1436.43 -277.797 1411.96 -245.717 1392.87L-244.5 1392.15C-209.094 1371.48 -171.111 1365.71 -134.358 1360.11C-103.037 1355.35 -70.6554 1350.42 -40.7924 1336.17C-25.1872 1328.73 -11.0132 1317.88 2.54362 1302.98C14.6248 1289.72 25.0661 1274.6 35.1672 1259.97C51.1022 1236.91 67.5731 1213.06 90.5947 1196.5C98.306 1190.91 106.874 1186.6 115.965 1183.75C124.517 1181.12 133.375 1179.63 142.314 1179.3C160.245 1178.47 179.017 1181.41 197.064 1184.23C216.845 1187.33 237.296 1190.52 257.162 1189.01C286.073 1186.8 323.006 1176.45 361.148 1159.89C378.197 1152.49 394.796 1144.1 410.86 1134.76Z" fill="url(#paint7_linear)"/>
<path d="M-114.372 1346.08C-94.1793 1341.23 -74.3599 1334.94 -55.0654 1327.26C-24.8104 1315.3 4.17426 1300.34 31.4567 1282.62C58.0192 1265.36 81.8599 1245.9 100.411 1226.37C114.087 1211.97 126.479 1201.05 138.283 1192.97C149.285 1185.33 161.424 1179.48 174.251 1175.63C198.566 1168.39 225.136 1168.1 266.478 1168.2C300.573 1168.21 334.616 1165.53 368.291 1160.2C388.269 1157.11 408.938 1153.17 432.655 1147.87C458.628 1143.77 485.662 1138.58 514.159 1132.16C530.928 1130.24 549.93 1128.58 570.253 1126.78C627.251 1121.7 691.879 1116 746.466 1102.66C776.317 1095.36 799.584 1086.7 817.599 1076.16C826.676 1071.01 834.972 1064.59 842.233 1057.1C848.774 1050.3 853.809 1042.19 857.01 1033.31L857.071 1033.14L856.886 1033.18C815.971 1044.79 774.803 1057.54 734.983 1069.87C683.684 1085.75 630.626 1102.19 577.913 1116.23C555.795 1122.11 534.581 1127.35 514.132 1131.96C495.953 1134 480.37 1136.29 468.513 1139.21C455.707 1142.37 443.823 1145.17 432.64 1147.72C427.46 1148.53 422.319 1149.31 417.217 1150.04C378.245 1155.59 337.161 1154.83 297.459 1154.1C254.228 1153.31 209.531 1152.49 168.096 1159.92C150.05 1163.17 136.008 1169.35 123.927 1179.42C113.115 1188.43 105.06 1199.53 96.6292 1211.25C89.2153 1221.5 81.557 1232.11 71.3238 1242.43C54.4886 1259.41 31.7552 1274.91 3.62537 1288.56C-22.382 1301.18 -51.757 1311.66 -83.6835 1319.7C-145.483 1335.25 -209.281 1339.43 -254.356 1330.87C-269.973 1327.9 -285.068 1324.41 -299.654 1321.06C-343.532 1310.92 -384.991 1301.31 -433.438 1307.34C-447.043 1309.04 -499.587 1317.3 -548.462 1328.88L-548.511 1328.9C-576.454 1335.53 -598.575 1342.14 -614.255 1348.61C-633.438 1356.47 -642.962 1364.07 -642.56 1371.17L-642.532 1371.29L-642.416 1371.26C-613.996 1364.78 -584.486 1354.43 -555.954 1344.48C-508.182 1327.76 -458.786 1310.49 -410.489 1309.33C-370.636 1308.36 -333.106 1320.77 -296.751 1332.78C-277.195 1339.18 -256.882 1345.91 -236.413 1350.39C-210.04 1356.24 -180.299 1356.92 -148.022 1352.44C-136.985 1350.9 -125.769 1348.78 -114.372 1346.08ZM181.611 1173.47C179.101 1174.07 176.636 1174.72 174.187 1175.45C161.344 1179.31 149.191 1185.17 138.176 1192.82C126.354 1200.91 113.914 1211.85 100.27 1226.25C81.728 1245.78 57.8924 1265.22 31.3882 1282.46C4.11511 1300.17 -24.8587 1315.11 -55.1019 1327.06C-86.8349 1339.59 -118.104 1348.06 -148.058 1352.2C-180.313 1356.69 -210.025 1356 -236.386 1350.16C-256.813 1345.64 -277.081 1338.92 -296.737 1332.45C-333.102 1320.44 -370.695 1308.02 -410.539 1308.99C-458.86 1310.18 -508.28 1327.44 -556.062 1344.15C-584.531 1354.11 -614.008 1364.42 -642.387 1370.91C-642.667 1363.92 -633.2 1356.39 -614.203 1348.66C-598.532 1342.24 -576.421 1335.58 -548.487 1328.95L-548.438 1328.94C-499.576 1317.34 -447.041 1309.09 -433.433 1307.4C-384.996 1301.38 -343.564 1310.96 -299.655 1321.1C-285.06 1324.49 -269.966 1327.98 -254.347 1330.91C-210.96 1339.11 -150.21 1335.6 -90.6052 1321.45C-88.2635 1320.9 -85.9186 1320.34 -83.5705 1319.79C-51.6342 1311.74 -22.2398 1301.26 3.77727 1288.63C31.8853 1274.99 54.6868 1259.46 71.5294 1242.47C81.7798 1232.14 89.4381 1221.53 96.8497 1211.27C105.37 1199.54 113.33 1188.47 124.115 1179.48C136.12 1169.44 150.18 1163.24 168.192 1160.02C209.597 1152.6 254.295 1153.42 297.516 1154.21C337.237 1154.94 378.312 1155.69 417.303 1150.14C421.393 1149.56 425.51 1148.95 429.654 1148.31C407.192 1153.27 387.462 1157.01 368.348 1159.96C334.682 1165.29 300.649 1167.96 266.564 1167.96C229.279 1167.92 204.031 1168.16 181.614 1173.48L181.611 1173.47ZM856.749 1033.43C853.551 1042.21 848.553 1050.22 842.077 1056.96C834.832 1064.44 826.554 1070.85 817.497 1075.99C799.502 1086.52 776.253 1095.18 746.419 1102.47C691.845 1115.81 627.234 1121.5 570.231 1126.6C550.622 1128.34 532.253 1129.97 515.907 1131.78C535.824 1127.26 556.451 1122.15 577.952 1116.44C630.684 1102.39 683.772 1085.95 735.032 1070.07C774.793 1057.76 815.914 1045.07 856.752 1033.44L856.749 1033.43ZM469.885 1139.1C481.162 1136.42 495.61 1134.29 512.349 1132.37C485.64 1138.36 460.237 1143.27 435.76 1147.19C446.063 1144.87 456.941 1142.29 468.589 1139.4L469.883 1139.09L469.885 1139.1Z" fill="url(#paint8_linear)"/>
<path d="M68.2018 1195.81C87.2604 1187.56 106.885 1180.69 126.925 1175.24C158.299 1166.63 190.454 1161.18 222.911 1158.96C254.515 1156.81 285.265 1158.05 311.829 1162.52C331.409 1165.82 347.88 1167.12 362.168 1166.48C375.551 1165.98 388.772 1163.37 401.342 1158.75C425.132 1149.93 446.552 1134.21 479.543 1109.29C506.801 1088.81 535.627 1070.51 565.755 1054.55C583.582 1045.01 602.473 1035.75 624.619 1025.74C647.854 1013.43 672.581 1001.34 699.224 989.356C713.787 980.823 729.972 970.732 747.304 959.966C795.926 929.793 851.028 895.541 902.681 873.418C930.933 861.326 954.742 854.281 975.472 851.884C985.822 850.549 996.31 850.699 1006.62 852.331C1015.93 853.842 1024.83 857.298 1032.72 862.473L1032.87 862.58L1032.7 862.656C993.012 877.946 952.438 892.477 913.196 906.536C862.641 924.645 810.346 943.371 759.767 963.803C738.547 972.381 718.439 980.933 699.322 989.531C683.56 998.817 669.726 1006.34 658.494 1011.13C646.355 1016.3 635.171 1021.2 624.698 1025.87C620.069 1028.33 615.496 1030.81 610.977 1033.29C576.484 1052.26 544.088 1077.53 512.784 1101.96C478.693 1128.56 443.449 1156.06 405.858 1175.01C389.475 1183.24 374.536 1186.74 358.827 1185.94C344.771 1185.23 331.665 1181.19 317.883 1176.88C305.799 1173.14 293.307 1169.26 278.926 1167.15C255.27 1163.69 227.779 1164.95 197.093 1170.93C168.716 1176.46 138.937 1185.72 108.582 1198.47C49.8307 1223.15 -3.692 1258.12 -34.5889 1292.04C-45.2948 1303.79 -55.2632 1315.66 -64.918 1327.09C-93.9088 1361.55 -121.287 1394.13 -163.644 1418.41C-175.542 1425.22 -222.512 1450.18 -268.55 1470.27L-268.596 1470.29C-294.921 1481.77 -316.581 1489.76 -333.002 1494.01C-353.062 1499.25 -365.238 1498.9 -369.186 1492.97L-369.234 1492.86L-369.124 1492.81C-342.504 1480.93 -312.698 1471.48 -283.905 1462.3C-235.671 1446.97 -185.802 1431.12 -146.488 1403.04C-114.042 1379.88 -91.4881 1347.42 -69.6331 1315.98C-57.8396 1299.12 -45.6409 1281.54 -31.9688 1265.66C-14.3946 1245.14 8.97575 1226.73 37.4758 1210.93C47.2232 1205.53 57.4651 1200.49 68.2018 1195.81ZM408.523 1156.05C406.158 1157.08 403.793 1158.04 401.399 1158.93C388.812 1163.56 375.573 1166.17 362.171 1166.67C347.861 1167.3 331.345 1166.03 311.788 1162.71C285.234 1158.23 254.501 1157 222.952 1159.13C190.51 1161.35 158.371 1166.81 127.014 1175.42C94.1131 1184.45 64.0251 1196.46 37.59 1211.15C9.10417 1226.93 -14.2386 1245.32 -31.8075 1265.83C-45.4218 1281.71 -57.5958 1299.25 -69.4226 1316.24C-91.2867 1347.68 -113.887 1380.18 -146.325 1403.34C-185.674 1431.41 -235.554 1447.29 -283.796 1462.63C-312.542 1471.76 -342.3 1481.22 -368.887 1493.08C-364.916 1498.83 -352.825 1499.17 -332.989 1493.94C-316.603 1489.67 -294.927 1481.71 -268.611 1470.23L-268.565 1470.21C-222.532 1450.13 -175.572 1425.18 -163.678 1418.36C-121.33 1394.09 -93.9575 1361.54 -64.9431 1327.06C-55.3043 1315.59 -45.332 1303.73 -34.6049 1292.01C-4.84216 1259.39 45.8407 1225.71 101.993 1201.22C104.199 1200.26 106.408 1199.3 108.62 1198.33C138.985 1185.58 168.782 1176.31 197.168 1170.78C227.84 1164.81 255.395 1163.53 279.064 1167C293.468 1169.1 305.96 1172.98 318.047 1176.73C331.908 1181 344.919 1185.07 358.943 1185.78C374.574 1186.6 389.536 1183.11 405.875 1174.87C443.437 1155.94 478.682 1128.43 512.764 1101.84C544.086 1077.4 576.473 1052.13 610.984 1033.15C614.602 1031.16 618.261 1029.17 621.959 1027.2C601.021 1036.72 583.001 1045.58 565.944 1054.7C535.826 1070.66 507.008 1088.96 479.759 1109.44C449.967 1131.86 429.638 1146.83 408.519 1156.04L408.523 1156.05ZM1032.44 862.539C1024.61 857.44 1015.8 854.032 1006.58 852.535C996.289 850.905 985.822 850.752 975.493 852.083C954.781 854.471 930.99 861.508 902.761 873.601C851.113 895.711 796.034 929.965 747.394 960.123C730.674 970.513 715.004 980.238 700.853 988.613C719.486 980.258 739.048 971.955 759.674 963.615C810.271 943.175 862.593 924.437 913.113 906.343C952.299 892.308 992.798 877.755 1032.44 862.53L1032.44 862.539ZM659.656 1010.4C670.28 1005.76 683.113 998.793 697.649 990.272C672.697 1001.52 649.438 1012.86 627.514 1024.43C637.146 1020.09 647.394 1015.63 658.441 1010.94L659.66 1010.41L659.656 1010.4Z" fill="url(#paint9_linear)"/>
</g>
<mask id="mask1" mask-type="alpha" maskUnits="userSpaceOnUse" x="1584" y="14" width="419" height="581">
<ellipse cx="1793.5" cy="304.5" rx="209.5" ry="290.5" fill="#C4C4C4"/>
</mask>
<g mask="url(#mask1)">
<path d="M1181.34 749.561C1162.44 760.473 1137.29 768.192 1105.42 772.917C1060.95 779.562 1010.44 779.301 965.911 779.113C935.701 778.981 907.19 778.853 885.96 781.007L884.615 781.149L885.948 780.712C914.724 771.711 958.739 771.168 1005.38 770.565C1048.53 770.03 1093.15 769.488 1130.78 762.367C1151.16 758.535 1167.41 753.148 1180.48 745.951C1195.06 737.932 1205.63 727.452 1211.88 714.83C1220.38 697.662 1220.64 677.198 1220.89 657.406C1221.07 642.564 1221.26 627.212 1224.98 613.507C1232.52 585.676 1245.57 563.632 1264.85 546.075C1281.88 530.648 1303.77 518.516 1333.72 507.9C1355.28 500.535 1377.23 494.394 1399.48 489.504C1419.55 482.583 1440.12 477.145 1460.25 471.691C1503.77 460.045 1548.77 448.009 1587.7 422.123C1595.92 416.664 1603.64 410.473 1610.75 403.626C1632.18 380.026 1642.57 350.204 1652.68 321.21C1663.68 289.659 1674.07 259.855 1697.67 240.156C1727.8 215.007 1773.51 220.066 1821.89 225.408C1855.94 229.173 1890.82 233.03 1922.25 226.682C1946.21 219.123 1968.57 207.233 1988.23 191.603C2004.94 178.563 2021.1 164.031 2038.23 148.652C2049.17 138.833 2060.23 128.896 2071.53 119.295C2088.34 103.701 2105.72 88.4493 2123.99 75.3657C2151.93 55.3937 2179.2 42.7913 2207.34 36.7577C2240.63 29.6892 2274.23 27.6417 2306.73 25.6537C2341.57 23.5257 2374.43 21.4611 2406.87 13.8342C2423.28 10.0559 2439.24 4.56004 2454.5 -2.56268C2470.85 -10.2536 2486.14 -20.0063 2500.01 -31.5827C2522.53 -50.275 2542.23 -82.4905 2563.07 -116.602C2581.77 -147.206 2601.11 -178.846 2623.54 -201.982C2635.66 -214.482 2647.55 -223.373 2659.86 -229.152C2673.19 -235.573 2688.06 -238.11 2702.76 -236.471L2703.33 -236.419L2702.79 -236.221C2678.34 -226.865 2656.33 -211.175 2635.51 -188.27C2616.91 -167.825 2600.87 -143.565 2585.38 -120.107C2563.77 -87.3957 2541.43 -53.5758 2511.46 -28.8177C2476.15 0.371586 2432.58 18.3092 2390.43 35.663C2382.46 38.9473 2374.23 42.3403 2366.23 45.7373C2318.46 66.019 2304.24 63.5251 2266.22 56.8474C2258.98 55.5712 2250.78 54.1375 2241.32 52.6804C2222.04 49.6295 2202.34 50.3769 2183.34 54.8807C2166.17 58.896 2149.14 65.807 2131.27 76.0301L2130.46 76.4971C2109.94 88.3437 2090.47 103.377 2071.62 119.381C2065.5 125.059 2059.44 130.777 2053.44 136.448C2023.91 164.342 1993.4 193.188 1958.27 213.597L1958.16 213.659C1947.01 220.003 1934.9 224.482 1922.31 226.918C1920.05 227.632 1917.76 228.32 1915.45 228.98C1891.33 235.781 1867.23 238.421 1841.7 241.203C1815.95 244.016 1789.31 246.913 1760.32 254.37C1736.77 260.213 1715.3 272.491 1698.32 289.832C1682.35 305.701 1670.09 324.325 1657.12 344.026C1643.54 364.65 1629.63 385.779 1610.95 403.798C1606.68 408.502 1602.05 412.858 1597.09 416.827C1574.23 435.134 1547.43 449.48 1515.18 460.708C1486.39 470.731 1455.85 477.438 1426.32 483.905C1417.45 485.853 1408.52 487.842 1399.52 489.865C1381.57 495.862 1364.21 503.491 1347.65 512.657C1328.01 523.688 1309.82 537.129 1293.51 552.669C1277.17 568.237 1263.26 586.166 1252.23 605.858C1242.87 622.734 1238.33 642.212 1234.03 660.98C1228.79 683.736 1223.35 707.256 1209.22 725.851C1201.6 735.527 1192.12 743.587 1181.34 749.561ZM887.348 780.554C908.403 778.564 936.39 778.663 965.954 778.802C1010.47 778.998 1060.95 779.211 1105.42 772.615C1156.77 764.998 1190.67 749.616 1209.03 725.598C1223.1 707.136 1228.52 683.654 1233.8 660.907C1238.14 642.081 1242.64 622.624 1252.02 605.711C1263.06 586.012 1276.99 568.076 1293.34 552.501C1309.66 536.943 1327.87 523.49 1347.53 512.455C1363.38 503.681 1379.96 496.333 1397.11 490.496C1375.71 495.256 1354.6 501.199 1333.86 508.298C1303.91 518.876 1282.05 530.976 1265.07 546.425C1245.8 563.895 1232.78 585.895 1225.24 613.669C1221.54 627.337 1221.37 642.664 1221.16 657.5C1220.92 677.323 1220.65 697.813 1212.14 715.049C1205.85 727.733 1195.24 738.253 1180.62 746.3C1167.51 753.505 1151.23 758.888 1130.84 762.745C1093.18 769.867 1048.55 770.417 1005.4 770.952C959.408 771.448 916.039 771.983 887.348 780.554ZM2130.47 76.3369L2131.27 75.8699C2149.15 65.6279 2166.22 58.6896 2183.42 54.6793C2202.45 50.1717 2222.18 49.4264 2241.5 52.4853C2250.95 53.9424 2259.16 55.3882 2266.39 56.6524C2304.34 63.2912 2318.56 65.8039 2366.25 45.5633C2374.25 42.1664 2382.49 38.7735 2390.46 35.4892C2432.58 18.1492 2476.12 0.225163 2511.41 -28.9504C2541.35 -53.6879 2563.68 -87.5009 2585.28 -120.193C2600.79 -143.659 2616.83 -167.937 2635.44 -188.389C2656.14 -211.157 2678.02 -226.802 2702.29 -236.203C2687.83 -237.707 2673.22 -235.158 2660.12 -228.842C2647.84 -223.083 2635.99 -214.212 2623.89 -201.739C2601.49 -178.622 2582.16 -147.002 2563.46 -116.416C2542.62 -82.286 2522.91 -50.0519 2500.35 -31.3321C2486.46 -19.7421 2471.14 -9.97792 2454.78 -2.27772C2439.49 4.86833 2423.49 10.3826 2407.05 14.174C2374.59 21.8146 2341.69 23.8386 2306.87 26.021C2274.37 28.0023 2240.78 30.0617 2207.52 37.1164C2179.4 43.0749 2152.15 55.6824 2124.27 75.6627C2107.5 87.9362 2091.5 101.215 2076.33 115.425C2093.6 100.826 2111.57 87.2614 2130.41 76.3831L2130.47 76.3369ZM1924.87 226.125C1936.52 223.646 1947.73 219.387 1958.08 213.498L1958.19 213.436C1993.35 193.135 2023.83 164.26 2053.29 136.407C2057.73 132.258 2062.16 128.017 2066.64 123.828C2057.12 132.055 2047.72 140.507 2038.31 148.924C2021.18 164.315 2005.02 178.836 1988.3 191.882C1969.34 206.941 1947.86 218.533 1924.87 226.125ZM1402.04 489.043C1410.16 487.196 1418.25 485.412 1426.26 483.657C1455.81 477.157 1486.31 470.478 1515.08 460.461C1547.31 449.248 1574.06 434.91 1596.91 416.628C1600.68 413.639 1604.27 410.423 1607.66 406.999C1601.47 412.691 1594.85 417.892 1587.85 422.556C1548.89 448.464 1503.86 460.501 1460.33 472.154C1440.97 477.273 1421.3 482.539 1402.04 489.043ZM1726.45 267.726C1737.03 261.668 1748.4 257.095 1760.23 254.135C1789.24 246.684 1815.89 243.78 1841.65 240.959C1867.16 238.173 1891.26 235.551 1915.36 228.745C1916.87 228.318 1918.36 227.877 1919.84 227.423C1889.01 233.108 1855.04 229.344 1821.84 225.676C1773.48 220.289 1727.86 215.286 1697.82 240.356C1674.27 260.009 1663.9 289.769 1652.92 321.282C1643.19 349.102 1633.19 377.775 1613.47 400.896C1630.77 383.501 1643.96 363.467 1656.86 343.876C1669.75 324.284 1682.1 305.513 1698.1 289.63C1706.55 281.125 1716.08 273.761 1726.45 267.726Z" fill="url(#paint10_linear)"/>
<path d="M1327.55 519.222C1328.87 518.323 1330.21 517.446 1331.55 516.589C1339.45 511.437 1348.19 507.713 1357.37 505.588C1365.35 503.844 1373.57 503.441 1381.69 504.393C1397.56 506.118 1413.16 512.327 1428.24 518.33C1456.59 529.618 1485.91 541.295 1520.28 525.709C1547.4 513.41 1580.11 491.445 1610.04 465.463C1641.42 438.212 1666.66 409.362 1681.11 384.25C1691.04 367.006 1696.97 347.183 1702.7 328.014C1707.95 310.451 1713.39 292.291 1721.84 276.513C1726 268.569 1731.19 261.203 1737.27 254.605C1743.77 247.618 1751.37 241.734 1759.76 237.18C1784.65 223.533 1813.3 218.962 1840.99 214.516C1858.53 211.708 1876.67 208.807 1893.83 203.637C1913.08 197.822 1928.97 189.739 1942.39 178.887C1968.1 158.096 1986.5 131.018 2004.3 104.826C2025.27 74.0211 2046.88 42.2229 2080.85 19.1601L2082.03 18.3569C2113.12 -2.37115 2147.64 -17.8195 2176.76 -24.014C2204.21 -29.8644 2217.47 -24.0461 2234.28 -16.6988C2242.65 -13.0388 2252.14 -8.88347 2264.7 -5.71909L2264.97 -5.65205L2264.74 -5.49478C2253.09 -0.0048475 2239.99 3.63067 2224.78 5.71691C2211.18 7.57318 2197.1 8.03288 2183.47 8.47209C2151.02 9.52191 2117.46 10.6199 2085.7 30.2469C2067.28 41.6463 2052.2 55.6661 2038.16 74.4562C2025.79 91.0244 2016.25 108.667 2006.1 127.272C1995.59 146.615 1984.72 166.615 1970.53 185.262C1932.12 235.51 1871.13 242.678 1812.16 249.592C1801.43 250.836 1790.34 252.15 1779.74 253.693C1775.2 254.352 1771.04 254.909 1767.37 255.394C1737.77 259.352 1731.61 260.175 1721.13 288.185C1716.42 300.825 1714.38 312.286 1712.4 323.389C1709.04 342.408 1705.87 360.369 1689.69 382.061C1671.41 406.562 1648.26 432.105 1622.73 455.904C1598.4 478.64 1572.29 499.394 1544.65 517.966C1529.14 528.289 1515.47 535.358 1501.63 540.242C1486.25 545.663 1470.03 548.348 1453.72 548.176C1437.97 548.131 1421.89 542.613 1406.29 537.297C1386.41 530.522 1367.63 524.124 1349.45 527.816C1337.35 530.267 1326.38 536.672 1315.92 547.364C1306.7 556.802 1299.08 568.224 1291.72 579.264C1288.83 583.643 1286.07 587.743 1283.25 591.711C1263.59 619.382 1240.76 641.827 1216.6 665.578C1211.11 670.978 1205.42 676.564 1199.83 682.189C1189.76 692.287 1177.66 706.906 1163.66 723.818C1118.67 778.212 1057.06 852.711 1002.36 845.849L1002.09 845.813L1002.31 845.661C1027.47 828.824 1053.21 808.621 1080.99 783.885C1105.81 761.787 1130.12 738.057 1153.62 715.101C1161.04 707.853 1168.72 700.358 1176.33 692.993C1197.48 672.526 1216.58 646.59 1236.85 619.114C1264.67 581.419 1293.37 542.425 1327.55 519.222ZM1566.11 499.609C1550.15 510.444 1534.53 519.457 1520.42 525.858C1485.96 541.492 1456.61 529.796 1428.21 518.496C1413.14 512.496 1397.55 506.29 1381.71 504.571C1373.6 503.628 1365.39 504.042 1357.42 505.799C1348.26 507.918 1339.54 511.631 1331.66 516.769C1295.75 539.554 1265.86 580.078 1236.99 619.249C1216.72 646.739 1197.58 672.703 1176.45 693.153C1168.84 700.517 1161.16 708.018 1153.75 715.261C1130.24 738.217 1105.94 761.955 1081.11 784.059C1053.4 808.722 1027.72 828.886 1002.63 845.7C1022.12 848.038 1042.5 840.05 1062.68 826.351C1098.98 801.704 1134.66 758.565 1163.52 723.688C1177.51 706.768 1189.59 692.161 1199.69 682.041C1205.3 676.418 1210.97 670.837 1216.46 665.43C1240.62 641.684 1263.42 619.251 1283.08 591.593C1285.9 587.625 1288.65 583.514 1291.55 579.146C1298.93 568.095 1306.52 556.682 1315.8 547.204C1326.28 536.465 1337.29 530.062 1349.43 527.597C1367.67 523.893 1386.44 530.27 1406.37 537.083C1421.95 542.388 1438.06 547.889 1453.73 547.948C1470 548.1 1486.17 545.406 1501.51 539.988C1515.33 535.115 1528.98 528.044 1544.47 517.731C1572.11 499.168 1598.21 478.426 1622.54 455.703C1648.07 431.918 1671.24 406.372 1689.49 381.886C1705.64 360.224 1708.8 342.291 1712.16 323.299C1714.12 312.213 1716.17 300.727 1720.88 288.079C1731.4 259.955 1737.57 259.126 1767.27 255.16C1770.94 254.674 1775.1 254.109 1779.63 253.45C1790.24 251.901 1801.33 250.61 1812.06 249.349C1870.98 242.44 1931.86 235.324 1970.29 185.101C1984.53 166.478 1995.39 146.483 2005.88 127.152C2016.02 108.5 2025.59 90.893 2037.96 74.3109C2051.99 55.5264 2067.13 41.4672 2085.58 30.0428C2117.37 10.3793 2150.96 9.29497 2183.45 8.23658C2197.06 7.7947 2211.14 7.33498 2224.72 5.47606C2239.81 3.41585 2252.79 -0.207515 2264.35 -5.58306C2251.93 -8.75131 2242.49 -12.86 2234.18 -16.5233C2217.4 -23.8569 2204.16 -29.6587 2176.78 -23.8228C2147.68 -17.6312 2113.18 -2.19414 2082.12 18.5171L2080.95 19.3091C2047.03 42.3381 2025.44 74.1195 2004.55 104.866C1986.74 131.071 1968.33 158.161 1942.6 178.963C1929.15 189.832 1913.25 197.943 1893.96 203.749C1876.79 208.931 1858.65 211.832 1841.09 214.637C1813.41 219.069 1784.79 223.645 1759.92 237.276C1751.55 241.821 1743.97 247.694 1737.48 254.667C1731.42 261.25 1726.25 268.596 1722.1 276.519C1713.62 292.342 1708.17 310.544 1702.94 328.045C1697.2 347.228 1691.27 367.057 1681.33 384.328C1666.87 409.46 1641.61 438.321 1610.22 465.592C1596.2 477.785 1581.47 489.144 1566.11 499.609Z" fill="url(#paint11_linear)"/>
<path d="M1983.26 116.847C1970.18 132.974 1955.96 148.143 1940.71 162.239C1916.87 184.379 1890.88 204.083 1863.13 221.056C1836.1 237.579 1808.26 250.697 1782.64 259.013C1763.75 265.143 1748.55 271.612 1736.17 278.781C1724.54 285.413 1714.02 293.841 1705.02 303.753C1688 322.569 1676.28 346.416 1658.54 383.763C1643.85 414.526 1626.75 444.087 1607.42 472.171C1596.02 488.864 1583.55 505.814 1568.54 524.928C1553.64 546.59 1537.3 568.747 1519.22 591.688C1510.25 605.988 1500.57 622.42 1490.18 639.98C1461.02 689.216 1428 745.066 1392.43 788.566C1372.97 812.351 1355.12 829.607 1337.84 841.317C1329.28 847.288 1319.92 852.004 1310.02 855.323C1301.06 858.291 1291.58 859.339 1282.19 858.399L1282 858.376L1282.12 858.229C1310.24 826.32 1339.5 794.675 1367.79 764.064C1404.24 724.629 1441.95 683.845 1477.35 642.34C1492.2 624.922 1506.08 608.042 1519.05 591.578C1528.73 576.057 1537.52 562.985 1545.26 553.545C1553.64 543.354 1561.29 533.839 1568.41 524.849C1571.38 520.526 1574.29 516.22 1577.15 511.932C1598.96 479.162 1616 441.769 1632.46 405.632C1650.39 366.287 1668.92 325.605 1693.49 291.424C1704.21 276.546 1715.84 266.541 1730.14 259.984C1742.93 254.114 1756.42 251.633 1770.63 249.082C1783.08 246.812 1795.95 244.476 1809.67 239.694C1832.25 231.825 1856.04 218.002 1880.48 198.505C1903.09 180.485 1925.21 158.499 1946.23 133.16C1986.91 84.1073 2018.2 28.3503 2029.91 -16.0115C2033.97 -31.3796 2037.32 -46.5085 2040.59 -61.1099C2050.36 -105.072 2059.57 -146.62 2085.91 -187.732C2093.3 -199.275 2123.41 -243.123 2154.94 -282.223L2154.97 -282.261C2173.01 -304.614 2188.51 -321.719 2201.11 -333.078C2216.48 -346.996 2227.43 -352.314 2233.68 -348.885L2233.77 -348.81L2233.69 -348.717C2215.58 -325.872 2193.53 -303.708 2172.24 -282.259C2136.56 -246.364 2099.68 -209.244 2077.8 -166.171C2059.74 -130.631 2054.75 -91.4185 2049.91 -53.4379C2047.25 -33.0351 2044.57 -11.8047 2039.79 8.59707C2033.69 34.9141 2021.48 62.0415 2003.51 89.2295C1997.37 98.5248 1990.62 107.731 1983.26 116.847ZM1699.89 309.464C1701.51 307.456 1703.17 305.515 1704.88 303.618C1713.9 293.695 1724.43 285.259 1736.09 278.62C1748.48 271.441 1763.71 264.934 1782.59 258.833C1808.21 250.525 1836.02 237.402 1863.01 220.926C1890.75 203.955 1916.72 184.256 1940.54 162.121C1965.54 138.896 1986.66 114.336 2003.32 89.0943C2021.27 61.928 2033.47 34.8241 2039.56 8.52115C2044.29 -11.8605 2046.97 -33.0409 2049.61 -53.5687C2054.45 -91.5571 2059.46 -130.829 2077.52 -166.361C2099.43 -209.445 2136.31 -246.593 2171.99 -282.496C2193.26 -303.886 2215.27 -326.038 2233.36 -348.844C2227.18 -352.109 2216.3 -346.814 2201.13 -333.01C2188.58 -321.64 2173.04 -304.561 2155.01 -282.216L2154.98 -282.177C2123.45 -243.091 2093.35 -199.252 2085.96 -187.702C2059.63 -146.598 2050.41 -105.084 2040.63 -61.0926C2037.39 -46.4661 2034.03 -31.3435 2029.94 -15.9864C2018.63 26.6965 1989.26 79.9939 1950.8 127.672C1949.29 129.545 1947.77 131.421 1946.26 133.299C1925.23 158.646 1903.1 180.647 1880.49 198.675C1856.05 218.15 1832.21 232.028 1809.62 239.898C1795.88 244.69 1783.01 247.026 1770.55 249.29C1756.29 251.917 1742.87 254.326 1730.11 260.179C1715.87 266.68 1704.22 276.694 1693.54 291.554C1668.99 325.712 1650.46 366.394 1632.53 405.731C1616.06 441.883 1599.03 479.269 1577.21 512.054C1574.92 515.494 1572.59 518.945 1570.23 522.408C1584.39 504.281 1596.27 488.091 1607.18 472.118C1626.5 444.042 1643.59 414.489 1658.29 383.733C1674.34 350.08 1685.44 327.402 1699.9 309.47L1699.89 309.464ZM1282.4 858.213C1291.71 859.113 1301.09 858.061 1309.97 855.123C1319.84 851.812 1329.19 847.107 1337.73 841.151C1354.99 829.456 1372.83 812.216 1392.27 788.44C1427.84 744.954 1460.84 689.114 1490.03 639.882C1500.05 622.938 1509.44 607.07 1518.12 593.1C1505.46 609.125 1491.95 625.532 1477.52 642.464C1442.11 683.984 1404.38 724.792 1367.96 764.196C1339.7 794.76 1310.52 826.39 1282.41 858.219L1282.4 858.213ZM1544.57 554.735C1537.3 563.756 1529.14 575.871 1520.19 590.148C1537.11 568.632 1552.5 547.829 1566.59 527.434C1560.05 535.728 1553.03 544.43 1545.4 553.694L1544.56 554.729L1544.57 554.735Z" fill="url(#paint12_linear)"/>
<path d="M1768.95 216.773C1753.29 230.411 1738.63 245.153 1725.07 260.886C1703.78 285.48 1684.99 312.14 1669 340.469C1653.42 368.055 1641.28 396.335 1633.87 422.231C1628.4 441.319 1622.46 456.738 1615.73 469.355C1609.51 481.215 1601.45 492.017 1591.86 501.364C1573.64 519.027 1550.22 531.573 1513.52 550.595C1483.28 566.356 1454.34 584.471 1426.94 604.771C1410.66 616.745 1394.15 629.794 1375.57 645.46C1354.44 661.113 1332.87 678.208 1310.57 697.081C1296.59 706.541 1280.51 716.792 1263.32 727.787C1215.13 758.645 1160.46 793.589 1118.23 830.653C1095.14 850.929 1078.51 869.372 1067.41 887.043C1061.74 895.805 1057.36 905.332 1054.38 915.336C1051.73 924.393 1051.01 933.907 1052.28 943.259L1052.31 943.445L1052.45 943.321C1083.36 914.107 1113.97 883.765 1143.58 854.422C1181.72 816.618 1221.16 777.51 1261.41 740.687C1278.3 725.24 1294.68 710.785 1310.69 697.245C1325.86 687.027 1338.62 677.792 1347.78 669.723C1357.68 660.998 1366.92 653.02 1375.65 645.587C1379.87 642.473 1384.07 639.412 1388.26 636.404C1420.25 613.464 1457.03 595.135 1492.57 577.426C1531.26 558.136 1571.28 538.197 1604.58 512.451C1619.08 501.221 1628.67 489.248 1634.72 474.732C1640.14 461.744 1642.15 448.177 1644.21 433.884C1646.04 421.368 1647.93 408.424 1652.23 394.54C1659.31 371.704 1672.29 347.441 1690.93 322.336C1708.15 299.115 1729.35 276.243 1753.94 254.353C1801.55 211.989 1856.18 178.779 1900.11 165.529C1915.32 160.937 1930.33 157.059 1944.81 153.278C1988.4 141.982 2029.6 131.33 2069.77 103.582C2081.05 95.7855 2123.82 64.1694 2161.8 31.2946L2161.84 31.262C2183.55 12.4608 2200.1 -3.63397 2211.02 -16.6175C2224.39 -32.4586 2229.32 -43.5961 2225.68 -49.7135L2225.6 -49.8043L2225.51 -49.7258C2203.31 -30.8321 2181.93 -8.01605 2161.23 14.0058C2126.6 50.9138 2090.79 89.0697 2048.51 112.433C2013.62 131.72 1974.6 138.07 1936.81 144.232C1916.52 147.602 1895.39 151.026 1875.17 156.514C1849.08 163.524 1822.4 176.672 1795.85 195.572C1786.77 202.038 1777.81 209.105 1768.95 216.773ZM1586.33 506.681C1588.28 504.992 1590.16 503.27 1592 501.495C1601.6 492.133 1609.66 481.314 1615.89 469.438C1622.63 456.8 1628.61 441.349 1634.05 422.272C1641.46 396.383 1653.6 368.125 1669.13 340.578C1685.12 312.266 1703.91 285.622 1725.2 261.043C1747.54 235.255 1771.35 213.287 1795.99 195.767C1822.52 176.872 1849.18 163.743 1875.25 156.733C1895.46 151.3 1916.53 147.88 1936.96 144.533C1974.75 138.365 2013.83 131.99 2048.71 112.71C2091 89.3116 2126.84 51.1577 2161.48 14.2431C2182.12 -7.75452 2203.49 -30.5216 2225.65 -49.3967C2229.13 -43.3337 2224.21 -32.28 2210.95 -16.6368C2200.02 -3.69662 2183.49 12.4286 2161.79 31.2232L2161.75 31.2558C2123.79 64.1316 2081.03 95.7412 2069.74 103.53C2029.58 131.271 1988.41 141.933 1944.79 153.241C1930.28 156.992 1915.29 160.877 1900.08 165.499C1857.82 178.287 1805.58 209.492 1759.27 249.595C1757.45 251.171 1755.63 252.749 1753.8 254.328C1729.2 276.226 1707.99 299.11 1690.76 322.338C1672.15 347.437 1659.11 371.746 1652.03 394.597C1647.72 408.501 1645.83 421.445 1644 433.969C1641.87 448.313 1639.93 461.807 1634.53 474.768C1628.53 489.224 1618.93 501.217 1604.45 512.406C1571.17 538.132 1531.16 558.072 1492.47 577.355C1456.91 595.077 1420.14 613.399 1388.14 636.352C1384.78 638.758 1381.41 641.203 1378.03 643.687C1395.65 628.903 1411.42 616.466 1427 605.009C1454.39 584.717 1483.33 566.609 1513.55 550.853C1546.63 533.64 1568.9 521.756 1586.32 506.674L1586.33 506.681ZM1052.46 943.037C1051.23 933.773 1051.96 924.354 1054.59 915.386C1057.55 905.402 1061.93 895.893 1067.58 887.147C1078.67 869.49 1095.28 851.059 1118.36 830.804C1160.58 793.74 1215.24 758.816 1263.42 727.936C1280.01 717.33 1295.54 707.387 1309.2 698.23C1293.62 711.439 1277.7 725.509 1261.28 740.521C1221.02 777.358 1181.55 816.485 1143.44 854.263C1113.88 883.567 1083.28 913.831 1052.45 943.03L1052.46 943.037ZM1346.62 670.455C1337.86 678.042 1326.03 686.614 1312.08 696.055C1332.99 678.394 1353.24 662.296 1373.13 647.504C1365.07 654.326 1356.62 661.645 1347.63 669.592L1346.62 670.462L1346.62 670.455Z" fill="url(#paint13_linear)"/>
<path d="M1231.24 749.561C1212.33 760.473 1187.18 768.192 1155.32 772.917C1110.84 779.562 1060.34 779.301 1015.8 779.113C985.595 778.981 957.084 778.853 935.854 781.007L934.509 781.149L935.842 780.712C964.618 771.711 1008.63 771.168 1055.28 770.565C1098.43 770.03 1143.04 769.488 1180.68 762.367C1201.05 758.535 1217.3 753.148 1230.37 745.951C1244.95 737.932 1255.52 727.452 1261.78 714.83C1270.28 697.662 1270.53 677.198 1270.78 657.406C1270.97 642.564 1271.16 627.212 1274.87 613.507C1282.42 585.676 1295.46 563.632 1314.75 546.075C1331.77 530.648 1353.66 518.516 1383.62 507.9C1405.17 500.535 1427.13 494.394 1449.38 489.504C1469.44 482.583 1490.01 477.145 1510.15 471.691C1553.67 460.045 1598.66 448.009 1637.59 422.123C1645.82 416.664 1653.53 410.473 1660.65 403.626C1682.07 380.026 1692.47 350.204 1702.58 321.21C1713.58 289.659 1723.96 259.855 1747.56 240.156C1777.69 215.007 1823.4 220.066 1871.78 225.408C1905.83 229.173 1940.72 233.03 1972.15 226.682C1996.1 219.123 2018.46 207.233 2038.13 191.603C2054.83 178.563 2070.99 164.031 2088.13 148.652C2099.06 138.833 2110.12 128.896 2121.42 119.295C2138.24 103.701 2155.62 88.4493 2173.88 75.3657C2201.83 55.3937 2229.1 42.7913 2257.24 36.7577C2290.52 29.6892 2324.12 27.6417 2356.63 25.6537C2391.46 23.5257 2424.32 21.4611 2456.76 13.8342C2473.17 10.0559 2489.14 4.56004 2504.39 -2.56268C2520.74 -10.2536 2536.04 -20.0063 2549.91 -31.5827C2572.42 -50.275 2592.12 -82.4905 2612.97 -116.602C2631.66 -147.206 2651 -178.846 2673.44 -201.982C2685.56 -214.482 2697.44 -223.373 2709.76 -229.152C2723.08 -235.573 2737.95 -238.11 2752.65 -236.471L2753.22 -236.419L2752.69 -236.221C2728.24 -226.865 2706.23 -211.175 2685.4 -188.27C2666.8 -167.825 2650.77 -143.565 2635.27 -120.107C2613.67 -87.3957 2591.32 -53.5758 2561.35 -28.8177C2526.04 0.371586 2482.47 18.3092 2440.33 35.663C2432.36 38.9473 2424.12 42.3403 2416.12 45.7373C2368.35 66.019 2354.13 63.5251 2316.11 56.8474C2308.87 55.5712 2300.67 54.1375 2291.22 52.6804C2271.93 49.6295 2252.24 50.3769 2233.24 54.8807C2216.06 58.896 2199.04 65.807 2181.17 76.0301L2180.36 76.4971C2159.84 88.3437 2140.37 103.377 2121.52 119.381C2115.39 125.059 2109.33 130.777 2103.33 136.448C2073.81 164.342 2043.29 193.188 2008.16 213.597L2008.05 213.659C1996.91 220.003 1984.8 224.482 1972.21 226.918C1969.94 227.632 1967.65 228.32 1965.34 228.98C1941.23 235.781 1917.12 238.421 1891.59 241.203C1865.84 244.016 1839.2 246.913 1810.22 254.37C1786.66 260.213 1765.2 272.491 1748.22 289.832C1732.24 305.701 1719.98 324.325 1707.01 344.026C1693.43 364.65 1679.52 385.779 1660.84 403.798C1656.57 408.502 1651.94 412.858 1646.98 416.827C1624.12 435.134 1597.32 449.48 1565.07 460.708C1536.28 470.731 1505.74 477.438 1476.22 483.905C1467.35 485.853 1458.41 487.842 1449.41 489.865C1431.46 495.862 1414.1 503.491 1397.54 512.657C1377.9 523.688 1359.72 537.129 1343.41 552.669C1327.07 568.237 1313.15 586.166 1302.13 605.858C1292.76 622.734 1288.22 642.212 1283.93 660.98C1278.69 683.736 1273.25 707.256 1259.12 725.851C1251.49 735.527 1242.01 743.587 1231.24 749.561ZM937.242 780.554C958.297 778.564 986.284 778.663 1015.85 778.802C1060.37 778.998 1110.85 779.211 1155.32 772.615C1206.67 764.998 1240.56 749.616 1258.92 725.598C1272.99 707.136 1278.42 683.654 1283.7 660.907C1288.04 642.081 1292.54 622.624 1301.92 605.711C1312.95 586.012 1326.88 568.076 1343.23 552.501C1359.55 536.943 1377.76 523.49 1397.43 512.455C1413.27 503.681 1429.86 496.333 1447 490.496C1425.6 495.256 1404.49 501.199 1383.75 508.298C1353.81 518.876 1331.95 530.976 1314.97 546.425C1295.69 563.895 1282.67 585.895 1275.14 613.669C1271.44 627.337 1271.26 642.664 1271.06 657.5C1270.81 677.323 1270.54 697.813 1262.03 715.049C1255.75 727.733 1245.13 738.253 1230.51 746.3C1217.4 753.505 1201.13 758.888 1180.74 762.745C1143.07 769.867 1098.44 770.417 1055.3 770.952C1009.3 771.448 965.933 771.983 937.242 780.554ZM2180.36 76.3369L2181.17 75.8699C2199.05 65.6279 2216.12 58.6896 2233.31 54.6793C2252.34 50.1717 2272.07 49.4264 2291.39 52.4853C2300.84 53.9424 2309.05 55.3882 2316.29 56.6524C2354.23 63.2912 2368.45 65.8039 2416.15 45.5633C2424.15 42.1664 2432.38 38.7735 2440.35 35.4892C2482.47 18.1492 2526.02 0.225163 2561.31 -28.9504C2591.24 -53.6879 2613.57 -87.5009 2635.17 -120.193C2650.68 -143.659 2666.72 -167.937 2685.33 -188.389C2706.03 -211.157 2727.91 -226.802 2752.19 -236.203C2737.72 -237.707 2723.12 -235.158 2710.02 -228.842C2697.73 -223.083 2685.89 -214.212 2673.79 -201.739C2651.38 -178.622 2632.05 -147.002 2613.36 -116.416C2592.51 -82.286 2572.8 -50.0519 2550.24 -31.3321C2536.35 -19.7421 2521.04 -9.97792 2504.67 -2.27772C2489.38 4.86833 2473.39 10.3826 2456.94 14.174C2424.48 21.8146 2391.58 23.8386 2356.76 26.021C2324.27 28.0023 2290.67 30.0617 2257.41 37.1164C2229.29 43.0749 2202.04 55.6824 2174.17 75.6627C2157.4 87.9362 2141.39 101.215 2126.23 115.425C2143.49 100.826 2161.47 87.2614 2180.31 76.3831L2180.36 76.3369ZM1974.76 226.125C1986.42 223.646 1997.62 219.387 2007.98 213.498L2008.08 213.436C2043.25 193.135 2073.73 164.26 2103.18 136.407C2107.62 132.258 2112.06 128.017 2116.54 123.828C2107.01 132.055 2097.62 140.507 2088.2 148.924C2071.08 164.315 2054.91 178.836 2038.19 191.882C2019.23 206.941 1997.76 218.533 1974.76 226.125ZM1451.93 489.043C1460.05 487.196 1468.14 485.412 1476.15 483.657C1505.71 477.157 1536.2 470.478 1564.98 460.461C1597.2 449.248 1623.96 434.91 1646.81 416.628C1650.58 413.639 1654.17 410.423 1657.55 406.999C1651.36 412.691 1644.74 417.892 1637.75 422.556C1598.78 448.464 1553.76 460.501 1510.22 472.154C1490.86 477.273 1471.19 482.539 1451.93 489.043ZM1776.34 267.726C1786.93 261.668 1798.3 257.095 1810.13 254.135C1839.13 246.684 1865.78 243.78 1891.54 240.959C1917.06 238.173 1941.16 235.551 1965.25 228.745C1966.76 228.318 1968.26 227.877 1969.74 227.423C1938.9 233.108 1904.93 229.344 1871.73 225.676C1823.37 220.289 1777.75 215.286 1747.71 240.356C1724.16 260.009 1713.8 289.769 1702.81 321.282C1693.08 349.102 1683.09 377.775 1663.37 400.896C1680.67 383.501 1693.86 363.467 1706.75 343.876C1719.64 324.284 1731.99 305.513 1747.99 289.63C1756.45 281.125 1765.98 273.761 1776.34 267.726Z" fill="url(#paint14_linear)"/>
<path d="M1377.44 519.222C1378.77 518.323 1380.1 517.446 1381.45 516.589C1389.34 511.437 1398.08 507.713 1407.26 505.588C1415.25 503.844 1423.47 503.441 1431.58 504.393C1447.45 506.118 1463.05 512.327 1478.14 518.33C1506.48 529.618 1535.8 541.295 1570.17 525.709C1597.3 513.41 1630.01 491.445 1659.93 465.463C1691.31 438.212 1716.55 409.362 1731 384.25C1740.93 367.006 1746.86 347.183 1752.59 328.014C1757.85 310.451 1763.29 292.291 1771.73 276.513C1775.9 268.569 1781.08 261.203 1787.16 254.605C1793.67 247.618 1801.26 241.734 1809.66 237.18C1834.55 223.533 1863.2 218.962 1890.88 214.516C1908.42 211.708 1926.56 208.807 1943.72 203.637C1962.97 197.822 1978.86 189.739 1992.28 178.887C2018 158.096 2036.39 131.018 2054.19 104.826C2075.16 74.0211 2096.77 42.2229 2130.74 19.1601L2131.93 18.3569C2163.01 -2.37115 2197.53 -17.8195 2226.65 -24.014C2254.11 -29.8644 2267.36 -24.0461 2284.17 -16.6988C2292.54 -13.0388 2302.03 -8.88347 2314.59 -5.71909L2314.86 -5.65205L2314.63 -5.49478C2302.99 -0.0048475 2289.89 3.63067 2274.67 5.71691C2261.08 7.57318 2246.99 8.03288 2233.37 8.47209C2200.91 9.52191 2167.36 10.6199 2135.6 30.2469C2117.17 41.6463 2102.09 55.6661 2088.05 74.4562C2075.68 91.0244 2066.15 108.667 2055.99 127.272C2045.48 146.615 2034.61 166.615 2020.42 185.262C1982.02 235.51 1921.02 242.678 1862.05 249.592C1851.32 250.836 1840.23 252.15 1829.63 253.693C1825.1 254.352 1820.93 254.909 1817.26 255.394C1787.66 259.352 1781.5 260.175 1771.03 288.185C1766.31 300.825 1764.28 312.286 1762.29 323.389C1758.93 342.408 1755.77 360.369 1739.59 382.061C1721.3 406.562 1698.15 432.105 1672.62 455.904C1648.29 478.64 1622.18 499.394 1594.54 517.966C1579.03 528.289 1565.36 535.358 1551.53 540.242C1536.14 545.663 1519.92 548.348 1503.61 548.176C1487.87 548.131 1471.78 542.613 1456.18 537.297C1436.3 530.522 1417.53 524.124 1399.34 527.816C1387.24 530.267 1376.27 536.672 1365.81 547.364C1356.59 556.802 1348.97 568.224 1341.61 579.264C1338.72 583.643 1335.96 587.743 1333.14 591.711C1313.48 619.382 1290.66 641.827 1266.5 665.578C1261 670.978 1255.32 676.564 1249.72 682.189C1239.65 692.287 1227.55 706.906 1213.56 723.818C1168.56 778.212 1106.95 852.711 1052.25 845.849L1051.99 845.813L1052.21 845.661C1077.36 828.824 1103.1 808.621 1130.88 783.885C1155.71 761.787 1180.01 738.057 1203.52 715.101C1210.94 707.853 1218.61 700.358 1226.22 692.993C1247.38 672.526 1266.48 646.59 1286.74 619.114C1314.56 581.419 1343.27 542.425 1377.44 519.222ZM1616.01 499.609C1600.05 510.444 1584.42 519.457 1570.31 525.858C1535.85 541.492 1506.51 529.796 1478.11 518.496C1463.03 512.496 1447.45 506.29 1431.61 504.571C1423.5 503.628 1415.28 504.042 1407.31 505.799C1398.15 507.918 1389.43 511.631 1381.56 516.769C1345.64 539.554 1315.76 580.078 1286.88 619.249C1266.61 646.739 1247.47 672.703 1226.34 693.153C1218.73 700.517 1211.05 708.018 1203.64 715.261C1180.13 738.217 1155.83 761.955 1131 784.059C1103.29 808.722 1077.61 828.886 1052.53 845.7C1072.01 848.038 1092.4 840.05 1112.57 826.351C1148.88 801.704 1184.56 758.565 1213.41 723.688C1227.4 706.768 1239.48 692.161 1249.58 682.041C1255.19 676.418 1260.87 670.837 1266.36 665.43C1290.51 641.684 1313.32 619.251 1332.98 591.593C1335.79 587.625 1338.54 583.514 1341.45 579.146C1348.82 568.095 1356.41 556.682 1365.69 547.204C1376.17 536.465 1387.18 530.062 1399.33 527.597C1417.56 523.893 1436.34 530.27 1456.26 537.083C1471.84 542.388 1487.96 547.889 1503.62 547.948C1519.89 548.1 1536.06 545.406 1551.4 539.988C1565.22 535.115 1578.88 528.044 1594.37 517.731C1622 499.168 1648.11 478.426 1672.44 455.703C1697.96 431.918 1721.14 406.372 1739.38 381.886C1755.53 360.224 1758.7 342.291 1762.05 323.299C1764.01 312.213 1766.06 300.727 1770.77 288.079C1781.29 259.955 1787.46 259.126 1817.16 255.16C1820.83 254.674 1824.99 254.109 1829.52 253.45C1840.14 251.901 1851.23 250.61 1861.95 249.349C1920.87 242.44 1981.76 235.324 2020.18 185.101C2034.42 166.478 2045.28 146.483 2055.78 127.152C2065.91 108.5 2075.48 90.893 2087.86 74.3109C2101.89 55.5264 2117.02 41.4672 2135.47 30.0428C2167.27 10.3793 2200.86 9.29497 2233.34 8.23658C2246.95 7.7947 2261.04 7.33498 2274.62 5.47606C2289.7 3.41585 2302.68 -0.207515 2314.25 -5.58306C2301.82 -8.75131 2292.39 -12.86 2284.07 -16.5233C2267.3 -23.8569 2254.05 -29.6587 2226.67 -23.8228C2197.58 -17.6312 2163.07 -2.19414 2132.01 18.5171L2130.84 19.3091C2096.92 42.3381 2075.34 74.1195 2054.44 104.866C2036.63 131.071 2018.22 158.161 1992.49 178.963C1979.05 189.832 1963.15 197.943 1943.86 203.749C1926.68 208.931 1908.54 211.832 1890.99 214.637C1863.31 219.069 1834.69 223.645 1809.82 237.276C1801.44 241.821 1793.86 247.694 1787.37 254.667C1781.31 261.25 1776.14 268.596 1771.99 276.519C1763.51 292.342 1758.07 310.544 1752.83 328.045C1747.1 347.228 1741.16 367.057 1731.23 384.328C1716.77 409.46 1691.51 438.321 1660.11 465.592C1646.09 477.785 1631.36 489.144 1616.01 499.609Z" fill="url(#paint15_linear)"/>
<path d="M2033.16 116.847C2020.07 132.974 2005.85 148.143 1990.6 162.239C1966.76 184.379 1940.77 204.083 1913.02 221.056C1885.99 237.579 1858.15 250.697 1832.53 259.013C1813.64 265.143 1798.44 271.612 1786.07 278.781C1774.43 285.413 1763.92 293.841 1754.91 303.753C1737.89 322.569 1726.17 346.416 1708.44 383.763C1693.74 414.526 1676.64 444.087 1657.31 472.171C1645.91 488.864 1633.45 505.814 1618.44 524.928C1603.53 546.59 1587.2 568.747 1569.11 591.688C1560.15 605.988 1550.46 622.42 1540.07 639.98C1510.91 689.216 1477.89 745.066 1442.32 788.566C1422.86 812.351 1405.01 829.607 1387.74 841.317C1379.18 847.288 1369.81 852.004 1359.92 855.323C1350.96 858.291 1341.47 859.339 1332.08 858.399L1331.9 858.376L1332.02 858.229C1360.13 826.32 1389.39 794.675 1417.69 764.064C1454.14 724.629 1491.85 683.845 1527.25 642.34C1542.09 624.922 1555.97 608.042 1568.94 591.578C1578.63 576.057 1587.41 562.985 1595.16 553.545C1603.53 543.354 1611.18 533.839 1618.31 524.849C1621.27 520.526 1624.19 516.22 1627.05 511.932C1648.86 479.162 1665.89 441.769 1682.35 405.632C1700.28 366.287 1718.82 325.605 1743.39 291.424C1754.1 276.546 1765.74 266.541 1780.03 259.984C1792.82 254.114 1806.31 251.633 1820.52 249.082C1832.97 246.812 1845.84 244.476 1859.56 239.694C1882.14 231.825 1905.94 218.002 1930.38 198.505C1952.98 180.485 1975.1 158.499 1996.12 133.16C2036.8 84.1073 2068.09 28.3503 2079.8 -16.0115C2083.86 -31.3796 2087.21 -46.5085 2090.49 -61.1099C2100.26 -105.072 2109.47 -146.62 2135.8 -187.732C2143.2 -199.275 2173.3 -243.123 2204.84 -282.223L2204.87 -282.261C2222.9 -304.614 2238.41 -321.719 2251 -333.078C2266.37 -346.996 2277.33 -352.314 2283.57 -348.885L2283.66 -348.81L2283.59 -348.717C2265.48 -325.872 2243.42 -303.708 2222.13 -282.259C2186.45 -246.364 2149.57 -209.244 2127.69 -166.171C2109.63 -130.631 2104.65 -91.4185 2099.81 -53.4379C2097.14 -33.0351 2094.46 -11.8047 2089.68 8.59707C2083.58 34.9141 2071.37 62.0415 2053.41 89.2295C2047.26 98.5248 2040.51 107.731 2033.16 116.847ZM1749.79 309.464C1751.41 307.456 1753.06 305.515 1754.77 303.618C1763.8 293.695 1774.33 285.259 1785.98 278.62C1798.37 271.441 1813.61 264.934 1832.48 258.833C1858.1 250.525 1885.92 237.402 1912.91 220.926C1940.64 203.955 1966.62 184.256 1990.44 162.121C2015.43 138.896 2036.56 114.336 2053.21 89.0943C2071.17 61.928 2083.36 34.8241 2089.46 8.52115C2094.18 -11.8605 2096.87 -33.0409 2099.5 -53.5687C2104.35 -91.5571 2109.36 -130.829 2127.41 -166.361C2149.32 -209.445 2186.2 -246.593 2221.89 -282.496C2243.15 -303.886 2265.16 -326.038 2283.25 -348.844C2277.07 -352.109 2266.2 -346.814 2251.03 -333.01C2238.47 -321.64 2222.93 -304.561 2204.91 -282.216L2204.88 -282.177C2173.34 -243.091 2143.24 -199.252 2135.85 -187.702C2109.53 -146.598 2100.31 -105.084 2090.52 -61.0926C2087.28 -46.4661 2083.92 -31.3435 2079.83 -15.9864C2068.52 26.6965 2039.16 79.9939 2000.69 127.672C1999.18 129.545 1997.67 131.421 1996.15 133.299C1975.13 158.646 1952.99 180.647 1930.38 198.675C1905.95 218.15 1882.11 232.028 1859.52 239.898C1845.77 244.69 1832.9 247.026 1820.45 249.29C1806.19 251.917 1792.77 254.326 1780 260.179C1765.76 266.68 1754.11 276.694 1743.44 291.554C1718.88 325.712 1700.35 366.394 1682.43 405.731C1665.96 441.883 1648.93 479.269 1627.1 512.054C1624.81 515.494 1622.49 518.945 1620.12 522.408C1634.28 504.281 1646.16 488.091 1657.07 472.118C1676.4 444.042 1693.49 414.489 1708.18 383.733C1724.23 350.08 1735.33 327.402 1749.8 309.47L1749.79 309.464ZM1332.3 858.213C1341.6 859.113 1350.99 858.061 1359.86 855.123C1369.73 851.812 1379.08 847.107 1387.63 841.151C1404.89 829.456 1422.73 812.216 1442.17 788.44C1477.74 744.954 1510.74 689.114 1539.92 639.882C1549.94 622.938 1559.34 607.07 1568.01 593.1C1555.35 609.125 1541.85 625.532 1527.42 642.464C1492 683.984 1454.28 724.792 1417.85 764.196C1389.59 794.76 1360.41 826.39 1332.31 858.219L1332.3 858.213ZM1594.47 554.735C1587.19 563.756 1579.03 575.871 1570.09 590.148C1587.01 568.632 1602.39 547.829 1616.48 527.434C1609.94 535.728 1602.92 544.43 1595.29 553.694L1594.46 554.729L1594.47 554.735Z" fill="url(#paint16_linear)"/>
<path d="M1818.85 216.773C1803.19 230.411 1788.52 245.153 1774.97 260.886C1753.67 285.48 1734.88 312.14 1718.89 340.469C1703.32 368.055 1691.18 396.335 1683.76 422.231C1678.29 441.319 1672.36 456.738 1665.62 469.355C1659.4 481.215 1651.34 492.017 1641.75 501.364C1623.54 519.027 1600.11 531.573 1563.41 550.595C1533.18 566.356 1504.23 584.471 1476.84 604.771C1460.55 616.745 1444.04 629.794 1425.47 645.46C1404.34 661.113 1382.76 678.208 1360.46 697.081C1346.49 706.541 1330.4 716.792 1313.21 727.787C1265.02 758.645 1210.36 793.589 1168.12 830.653C1145.03 850.929 1128.41 869.372 1117.31 887.043C1111.64 895.805 1107.25 905.332 1104.28 915.336C1101.62 924.393 1100.91 933.907 1102.17 943.259L1102.2 943.445L1102.35 943.321C1133.26 914.107 1163.86 883.765 1193.47 854.422C1231.61 816.618 1271.06 777.51 1311.3 740.687C1328.19 725.24 1344.58 710.785 1360.58 697.245C1375.75 687.027 1388.51 677.792 1397.68 669.723C1407.57 660.998 1416.81 653.02 1425.55 645.587C1429.77 642.473 1433.97 639.412 1438.15 636.404C1470.14 613.464 1506.92 595.135 1542.46 577.426C1581.16 558.136 1621.17 538.197 1654.47 512.451C1668.97 501.221 1678.56 489.248 1684.62 474.732C1690.04 461.744 1692.05 448.177 1694.1 433.884C1695.94 421.368 1697.82 408.424 1702.12 394.54C1709.2 371.704 1722.19 347.441 1740.82 322.336C1758.04 299.115 1779.24 276.243 1803.84 254.353C1851.44 211.989 1906.07 178.779 1950 165.529C1965.22 160.937 1980.22 157.059 1994.7 153.278C2038.29 141.982 2079.5 131.33 2119.67 103.582C2130.94 95.7855 2173.72 64.1694 2211.69 31.2946L2211.73 31.262C2233.44 12.4608 2250 -3.63397 2260.91 -16.6175C2274.28 -32.4586 2279.22 -43.5961 2275.57 -49.7135L2275.49 -49.8043L2275.4 -49.7258C2253.2 -30.8321 2231.82 -8.01605 2211.13 14.0058C2176.5 50.9138 2140.69 89.0697 2098.4 112.433C2063.51 131.72 2024.5 138.07 1986.71 144.232C1966.41 147.602 1945.29 151.026 1925.06 156.514C1898.97 163.524 1872.29 176.672 1845.74 195.572C1836.67 202.038 1827.7 209.105 1818.85 216.773ZM1636.22 506.681C1638.17 504.992 1640.05 503.27 1641.89 501.495C1651.49 492.133 1659.56 481.314 1665.79 469.438C1672.53 456.8 1678.5 441.349 1683.94 422.272C1691.35 396.383 1703.5 368.125 1719.02 340.578C1735.02 312.266 1753.8 285.622 1775.09 261.043C1797.43 235.255 1821.24 213.287 1845.89 195.767C1872.41 176.872 1899.07 163.743 1925.15 156.733C1945.35 151.3 1966.43 147.88 1986.85 144.533C2024.65 138.365 2063.72 131.99 2098.6 112.71C2140.9 89.3116 2176.74 51.1577 2211.37 14.2431C2232.01 -7.75452 2253.38 -30.5216 2275.54 -49.3967C2279.02 -43.3337 2274.11 -32.28 2260.84 -16.6368C2249.92 -3.69662 2233.39 12.4286 2211.68 31.2232L2211.65 31.2558C2173.68 64.1316 2130.92 95.7412 2119.63 103.53C2079.47 131.271 2038.31 141.933 1994.68 153.241C1980.18 156.992 1965.18 160.877 1949.98 165.499C1907.71 178.287 1855.47 209.492 1809.16 249.595C1807.34 251.171 1805.52 252.749 1803.7 254.328C1779.1 276.226 1757.88 299.11 1740.65 322.338C1722.04 347.437 1709 371.746 1701.92 394.597C1697.61 408.501 1695.73 421.445 1693.9 433.969C1691.77 448.313 1689.83 461.807 1684.42 474.768C1678.42 489.224 1668.82 501.217 1654.34 512.406C1621.06 538.132 1581.05 558.072 1542.36 577.355C1506.8 595.077 1470.03 613.399 1438.03 636.352C1434.67 638.758 1431.3 641.203 1427.92 643.687C1445.55 628.903 1461.31 616.466 1476.9 605.009C1504.28 584.717 1533.22 566.609 1563.45 550.853C1596.52 533.64 1618.8 521.756 1636.22 506.674L1636.22 506.681ZM1102.35 943.037C1101.13 933.773 1101.85 924.354 1104.48 915.386C1107.44 905.402 1111.82 895.893 1117.48 887.147C1128.56 869.49 1145.17 851.059 1168.25 830.804C1210.47 793.74 1265.13 758.816 1313.32 727.936C1329.9 717.33 1345.43 707.387 1359.09 698.23C1343.52 711.439 1327.59 725.509 1311.17 740.521C1270.91 777.358 1231.44 816.485 1193.33 854.263C1163.77 883.567 1133.18 913.831 1102.35 943.03L1102.35 943.037ZM1396.51 670.455C1387.75 678.042 1375.93 686.614 1361.97 696.055C1382.88 678.394 1403.14 662.296 1423.03 647.504C1414.97 654.326 1406.52 661.645 1397.52 669.592L1396.52 670.462L1396.51 670.455Z" fill="url(#paint17_linear)"/>
</g>
<defs>
<filter id="filter0_f" x="-460" y="0" width="918" height="918" filterUnits="userSpaceOnUse" color-interpolation-filters="sRGB">
<feFlood flood-opacity="0" result="BackgroundImageFix"/>
<feBlend mode="normal" in="SourceGraphic" in2="BackgroundImageFix" result="shape"/>
<feGaussianBlur stdDeviation="12.5" result="effect1_foregroundBlur"/>
</filter>
<filter id="filter1_f" x="1459" y="513" width="918" height="918" filterUnits="userSpaceOnUse" color-interpolation-filters="sRGB">
<feFlood flood-opacity="0" result="BackgroundImageFix"/>
<feBlend mode="normal" in="SourceGraphic" in2="BackgroundImageFix" result="shape"/>
<feGaussianBlur stdDeviation="12.5" result="effect1_foregroundBlur"/>
</filter>
<radialGradient id="paint0_radial" cx="0" cy="0" r="1" gradientUnits="userSpaceOnUse" gradientTransform="translate(-1 459) rotate(90) scale(434)">
<stop stop-color="#49C4E6"/>
<stop offset="0.489583" stop-color="#49C4E6" stop-opacity="0.510417"/>
<stop offset="1" stop-color="#49C4E6" stop-opacity="0"/>
</radialGradient>
<radialGradient id="paint1_radial" cx="0" cy="0" r="1" gradientUnits="userSpaceOnUse" gradientTransform="translate(1918 972) rotate(90) scale(434)">
<stop stop-color="#49C4E6"/>
<stop offset="0.489583" stop-color="#49C4E6" stop-opacity="0.510417"/>
<stop offset="1" stop-color="#49C4E6" stop-opacity="0"/>
</radialGradient>
<linearGradient id="paint2_linear" x1="334.465" y1="1094.92" x2="30.7173" y2="1263.27" gradientUnits="userSpaceOnUse">
<stop stop-color="#49C4E6" stop-opacity="0"/>
<stop offset="0.497628" stop-color="#49C4E6"/>
<stop offset="1" stop-color="#49C4E6" stop-opacity="0"/>
</linearGradient>
<linearGradient id="paint3_linear" x1="-24.8595" y1="1324.96" x2="320.801" y2="1165.13" gradientUnits="userSpaceOnUse">
<stop stop-color="#49C4E6" stop-opacity="0"/>
<stop offset="0.259719" stop-color="#49C4E6"/>
<stop offset="1" stop-color="#49C4E6" stop-opacity="0"/>
</linearGradient>
<linearGradient id="paint4_linear" x1="75.4823" y1="1177.13" x2="-343.354" y2="1272.71" gradientUnits="userSpaceOnUse">
<stop stop-color="#49C4E6" stop-opacity="0"/>
<stop offset="0.66644" stop-color="#49C4E6"/>
<stop offset="1" stop-color="#49C4E6" stop-opacity="0"/>
</linearGradient>
<linearGradient id="paint5_linear" x1="298.746" y1="1148.78" x2="-93.5402" y2="1323.91" gradientUnits="userSpaceOnUse">
<stop stop-color="#49C4E6" stop-opacity="0"/>
<stop offset="0.66644" stop-color="#49C4E6"/>
<stop offset="1" stop-color="#49C4E6" stop-opacity="0"/>
</linearGradient>
<linearGradient id="paint6_linear" x1="312.95" y1="1139.93" x2="9.20269" y2="1308.29" gradientUnits="userSpaceOnUse">
<stop stop-color="#49C4E6" stop-opacity="0"/>
<stop offset="0.497628" stop-color="#49C4E6"/>
<stop offset="1" stop-color="#49C4E6" stop-opacity="0"/>
</linearGradient>
<linearGradient id="paint7_linear" x1="37.4999" y1="1315.5" x2="353.457" y2="1177.07" gradientUnits="userSpaceOnUse">
<stop stop-color="#49C4E6" stop-opacity="0"/>
<stop offset="0.557057" stop-color="#49C4E6"/>
<stop offset="1" stop-color="#49C4E6" stop-opacity="0"/>
</linearGradient>
<linearGradient id="paint8_linear" x1="53.9667" y1="1222.15" x2="-364.869" y2="1317.73" gradientUnits="userSpaceOnUse">
<stop stop-color="#49C4E6" stop-opacity="0"/>
<stop offset="0.66644" stop-color="#49C4E6"/>
<stop offset="1" stop-color="#49C4E6" stop-opacity="0"/>
</linearGradient>
<linearGradient id="paint9_linear" x1="332" y1="1120.5" x2="-27.9234" y2="1342.54" gradientUnits="userSpaceOnUse">
<stop stop-color="#49C4E6" stop-opacity="0"/>
<stop offset="0.570637" stop-color="#49C4E6"/>
<stop offset="1" stop-color="#49C4E6" stop-opacity="0"/>
</linearGradient>
<linearGradient id="paint10_linear" x1="1613" y1="413.5" x2="1895.88" y2="212.044" gradientUnits="userSpaceOnUse">
<stop stop-color="#49C4E6" stop-opacity="0"/>
<stop offset="0.497628" stop-color="#49C4E6"/>
<stop offset="1" stop-color="#49C4E6" stop-opacity="0"/>
</linearGradient>
<linearGradient id="paint11_linear" x1="1975.5" y1="188.5" x2="1682.24" y2="431.449" gradientUnits="userSpaceOnUse">
<stop stop-color="#49C4E6" stop-opacity="0"/>
<stop offset="0.259719" stop-color="#49C4E6"/>
<stop offset="1" stop-color="#49C4E6" stop-opacity="0"/>
</linearGradient>
<linearGradient id="paint12_linear" x1="1798.85" y1="215.287" x2="2065.7" y2="-121.389" gradientUnits="userSpaceOnUse">
<stop stop-color="#49C4E6" stop-opacity="0"/>
<stop offset="0.66644" stop-color="#49C4E6"/>
<stop offset="1" stop-color="#49C4E6" stop-opacity="0"/>
</linearGradient>
<linearGradient id="paint13_linear" x1="1677" y1="404.5" x2="2004.17" y2="126.082" gradientUnits="userSpaceOnUse">
<stop stop-color="#49C4E6" stop-opacity="0"/>
<stop offset="0.66644" stop-color="#49C4E6"/>
<stop offset="1" stop-color="#49C4E6" stop-opacity="0"/>
</linearGradient>
<linearGradient id="paint14_linear" x1="1662.89" y1="413.5" x2="1945.77" y2="212.044" gradientUnits="userSpaceOnUse">
<stop stop-color="#49C4E6" stop-opacity="0"/>
<stop offset="0.497628" stop-color="#49C4E6"/>
<stop offset="1" stop-color="#49C4E6" stop-opacity="0"/>
</linearGradient>
<linearGradient id="paint15_linear" x1="2025.39" y1="188.5" x2="1732.13" y2="431.449" gradientUnits="userSpaceOnUse">
<stop stop-color="#49C4E6" stop-opacity="0"/>
<stop offset="0.259719" stop-color="#49C4E6"/>
<stop offset="1" stop-color="#49C4E6" stop-opacity="0"/>
</linearGradient>
<linearGradient id="paint16_linear" x1="1848.75" y1="215.287" x2="2115.6" y2="-121.389" gradientUnits="userSpaceOnUse">
<stop stop-color="#49C4E6" stop-opacity="0"/>
<stop offset="0.66644" stop-color="#49C4E6"/>
<stop offset="1" stop-color="#49C4E6" stop-opacity="0"/>
</linearGradient>
<linearGradient id="paint17_linear" x1="1726.89" y1="404.5" x2="2054.07" y2="126.082" gradientUnits="userSpaceOnUse">
<stop stop-color="#49C4E6" stop-opacity="0"/>
<stop offset="0.66644" stop-color="#49C4E6"/>
<stop offset="1" stop-color="#49C4E6" stop-opacity="0"/>
</linearGradient>
</defs>
</svg>
