<svg id="svg" version="1.1" width="400" height="379.2" viewBox="0 0 400 379.2" xmlns="http://www.w3.org/2000/svg" xmlns:xlink="http://www.w3.org/1999/xlink" ><g id="svgg"><path id="path0" d="M191.366 0.256 C 190.688 0.351,190.133 0.588,190.133 0.783 C 190.133 0.979,189.801 1.139,189.396 1.139 C 188.991 1.139,188.554 1.309,188.425 1.518 C 188.296 1.727,187.854 1.898,187.442 1.898 C 187.030 1.898,186.595 2.154,186.475 2.467 C 186.355 2.780,186.019 3.036,185.728 3.036 C 185.437 3.036,185.199 3.207,185.199 3.416 C 185.199 3.624,184.930 3.795,184.600 3.795 C 184.271 3.795,183.345 4.478,182.543 5.313 C 181.741 6.148,180.980 6.831,180.852 6.831 C 180.563 6.831,177.989 9.385,177.989 9.672 C 177.989 9.945,173.133 14.801,172.860 14.801 C 172.586 14.801,170.019 17.369,170.019 17.643 C 170.019 17.918,165.925 22.011,165.650 22.011 C 165.376 22.011,162.808 24.579,162.808 24.853 C 162.808 25.128,158.715 29.222,158.440 29.222 C 158.165 29.222,155.598 31.789,155.598 32.064 C 155.598 32.339,151.504 36.433,151.229 36.433 C 150.955 36.433,148.387 38.999,148.387 39.273 C 148.387 39.550,143.530 44.402,143.254 44.402 C 142.975 44.402,141.176 46.201,141.176 46.479 C 141.176 46.759,136.322 51.613,136.043 51.613 C 135.764 51.613,133.966 53.411,133.966 53.690 C 133.966 54.020,129.085 58.824,128.750 58.824 C 128.587 58.824,128.114 59.281,127.699 59.841 C 126.487 61.476,121.895 66.034,121.460 66.034 C 121.242 66.034,121.063 66.192,121.063 66.384 C 121.063 66.660,113.154 74.650,98.309 89.374 C 86.934 100.655,18.216 169.744,18.216 169.899 C 18.216 170.022,17.583 170.655,16.810 171.305 C 16.036 171.954,14.456 173.479,13.299 174.692 C 12.142 175.906,10.043 178.029,8.634 179.410 C 7.225 180.791,6.072 182.063,6.072 182.236 C 6.072 182.408,5.560 183.086,4.934 183.741 C 4.307 184.396,3.795 185.186,3.795 185.496 C 3.795 185.805,3.492 186.335,3.121 186.673 C 2.099 187.603,1.139 189.258,1.139 190.088 C 1.139 190.495,0.925 190.900,0.664 190.987 C -0.024 191.216,-0.024 210.681,0.664 210.911 C 0.925 210.998,1.139 211.382,1.139 211.766 C 1.139 212.564,2.325 214.795,2.751 214.798 C 2.908 214.800,3.036 215.057,3.036 215.370 C 3.036 215.683,3.207 215.939,3.416 215.939 C 3.624 215.939,3.795 216.243,3.795 216.615 C 3.795 216.986,4.137 217.536,4.554 217.837 C 4.972 218.138,5.313 218.569,5.313 218.795 C 5.313 219.238,7.730 222.011,8.116 222.011 C 8.244 222.011,8.665 222.310,9.051 222.676 C 10.341 223.896,11.436 224.707,12.364 225.130 C 12.869 225.360,13.283 225.692,13.283 225.867 C 13.283 226.043,13.614 226.186,14.019 226.186 C 14.424 226.186,14.862 226.357,14.991 226.565 C 15.120 226.774,15.642 226.945,16.151 226.945 C 16.661 226.945,17.078 227.116,17.078 227.324 C 17.078 227.533,17.676 227.704,18.406 227.704 C 19.137 227.704,19.734 227.875,19.734 228.083 C 19.734 228.292,20.578 228.463,21.609 228.463 C 22.641 228.463,23.590 228.634,23.719 228.843 C 23.848 229.051,25.385 229.222,27.135 229.222 C 28.884 229.222,30.421 229.051,30.550 228.843 C 30.679 228.634,31.619 228.463,32.638 228.463 C 33.657 228.463,34.596 228.292,34.725 228.083 C 34.854 227.875,35.462 227.704,36.076 227.704 C 36.689 227.704,37.192 227.533,37.192 227.324 C 37.192 227.116,37.533 226.945,37.951 226.945 C 38.368 226.945,38.710 226.774,38.710 226.565 C 38.710 226.357,39.041 226.186,39.446 226.186 C 39.851 226.186,40.288 226.015,40.417 225.806 C 40.546 225.598,40.983 225.427,41.389 225.427 C 41.794 225.427,42.125 225.256,42.125 225.047 C 42.125 224.839,42.339 224.668,42.600 224.667 C 43.115 224.667,45.161 223.030,45.161 222.619 C 45.161 222.314,47.703 219.734,48.003 219.734 C 48.278 219.734,52.372 215.641,52.372 215.366 C 52.372 215.091,54.939 212.524,55.214 212.524 C 55.487 212.524,59.583 208.431,59.583 208.158 C 59.583 207.885,62.915 204.554,63.188 204.554 C 63.462 204.554,66.793 201.222,66.793 200.949 C 66.793 200.675,70.125 197.343,70.398 197.343 C 70.514 197.343,71.372 196.579,72.306 195.646 C 73.240 194.712,74.004 193.853,74.004 193.738 C 74.004 193.466,77.335 190.133,77.607 190.133 C 77.881 190.133,81.973 186.037,81.973 185.764 C 81.973 185.489,84.541 182.922,84.815 182.922 C 85.089 182.922,89.184 178.829,89.184 178.556 C 89.184 178.284,92.517 174.953,92.789 174.953 C 93.104 174.953,96.392 171.603,96.412 171.262 C 96.421 171.100,97.376 170.114,98.533 169.070 C 99.691 168.027,101.263 166.518,102.027 165.718 C 102.791 164.918,104.407 163.296,105.620 162.113 C 106.832 160.930,108.455 159.322,109.225 158.539 C 109.996 157.757,124.331 143.345,141.082 126.512 L 171.537 95.907 171.537 225.730 C 171.537 311.869,171.665 355.632,171.917 355.787 C 172.125 355.916,172.296 356.866,172.296 357.897 C 172.296 359.311,172.436 359.772,172.865 359.772 C 173.261 359.772,173.435 360.170,173.435 361.078 C 173.435 361.796,173.605 362.490,173.814 362.619 C 174.023 362.748,174.194 363.270,174.194 363.780 C 174.194 364.289,174.364 364.706,174.573 364.706 C 174.782 364.706,174.953 365.047,174.953 365.465 C 174.953 365.882,175.104 366.224,175.289 366.224 C 175.474 366.224,175.892 366.779,176.218 367.457 C 177.287 369.682,181.367 374.194,182.310 374.194 C 182.548 374.194,183.063 374.620,183.455 375.142 C 183.846 375.664,184.330 376.091,184.530 376.091 C 184.729 376.091,185.346 376.409,185.900 376.799 C 186.454 377.188,187.590 377.742,188.425 378.030 C 189.260 378.318,190.065 378.726,190.214 378.935 C 190.637 379.532,208.563 379.444,209.165 378.843 C 209.426 378.582,209.904 378.371,210.228 378.374 C 211.167 378.382,215.560 375.958,215.560 375.431 C 215.560 375.168,215.864 374.953,216.235 374.953 C 216.606 374.953,217.156 374.611,217.457 374.194 C 217.758 373.776,218.142 373.435,218.310 373.435 C 218.758 373.435,222.011 370.107,222.011 369.649 C 222.011 369.435,222.182 369.260,222.391 369.260 C 222.600 369.260,222.770 368.956,222.770 368.585 C 222.770 368.213,223.112 367.663,223.529 367.362 C 223.947 367.062,224.288 366.512,224.288 366.140 C 224.288 365.769,224.459 365.465,224.668 365.465 C 224.877 365.465,225.047 365.223,225.047 364.926 C 225.047 364.630,225.333 363.819,225.681 363.124 C 226.029 362.428,226.456 361.563,226.630 361.201 C 226.803 360.838,226.945 360.037,226.945 359.420 C 226.945 358.804,227.116 358.194,227.324 358.065 C 227.576 357.909,227.704 313.722,227.704 226.733 C 227.704 154.629,227.782 95.636,227.877 95.636 C 228.170 95.636,245.161 112.721,245.161 113.015 C 245.161 113.168,245.619 113.632,246.178 114.047 C 247.814 115.259,252.372 119.851,252.372 120.285 C 252.372 120.504,252.527 120.683,252.717 120.683 C 253.125 120.683,267.398 134.858,268.496 136.354 C 268.911 136.919,269.384 137.381,269.547 137.381 C 269.882 137.381,274.763 142.185,274.763 142.515 C 274.763 142.794,276.561 144.592,276.840 144.592 C 277.119 144.592,281.973 149.446,281.973 149.726 C 281.973 150.004,283.772 151.803,284.050 151.803 C 284.327 151.803,289.184 156.655,289.184 156.932 C 289.184 157.205,291.752 159.772,292.026 159.772 C 292.301 159.772,296.395 163.866,296.395 164.141 C 296.395 164.437,298.972 166.983,299.272 166.983 C 299.407 166.983,300.138 167.708,300.897 168.594 C 303.848 172.040,352.923 221.400,355.417 223.430 C 356.247 224.106,357.139 224.661,357.400 224.663 C 357.661 224.666,357.875 224.839,357.875 225.047 C 357.875 225.256,358.131 225.427,358.444 225.427 C 358.757 225.427,359.013 225.598,359.013 225.806 C 359.013 226.015,359.355 226.186,359.772 226.186 C 360.190 226.186,360.531 226.357,360.531 226.565 C 360.531 226.774,360.948 226.945,361.458 226.945 C 361.967 226.945,362.490 227.116,362.619 227.324 C 362.748 227.533,363.345 227.704,363.947 227.704 C 364.548 227.704,365.146 227.875,365.275 228.083 C 365.404 228.292,366.354 228.463,367.385 228.463 C 368.416 228.463,369.260 228.634,369.260 228.843 C 369.260 229.344,375.971 229.344,376.281 228.843 C 376.410 228.634,377.359 228.463,378.391 228.463 C 379.422 228.463,380.266 228.292,380.266 228.083 C 380.266 227.875,380.863 227.704,381.594 227.704 C 382.324 227.704,382.922 227.533,382.922 227.324 C 382.922 227.116,383.162 226.945,383.456 226.945 C 384.088 226.945,387.231 225.363,387.413 224.953 C 387.483 224.796,387.802 224.668,388.122 224.668 C 388.751 224.668,395.446 218.073,395.446 217.453 C 395.446 217.247,395.617 217.078,395.827 217.078 C 396.036 217.078,396.503 216.395,396.865 215.560 C 397.227 214.725,397.653 214.042,397.812 214.042 C 397.972 214.042,398.102 213.700,398.102 213.283 C 398.102 212.865,398.273 212.524,398.482 212.524 C 398.691 212.524,398.861 212.131,398.861 211.651 C 398.861 211.171,399.075 210.565,399.336 210.304 C 399.689 209.951,399.810 207.531,399.810 200.867 C 399.810 194.034,399.698 191.866,399.336 191.746 C 399.075 191.659,398.861 191.090,398.861 190.481 C 398.861 189.872,398.691 189.374,398.482 189.374 C 398.273 189.374,398.102 189.032,398.102 188.615 C 398.102 188.197,397.932 187.856,397.723 187.856 C 397.514 187.856,397.343 187.618,397.343 187.326 C 397.343 187.035,396.919 186.395,396.401 185.903 C 395.883 185.412,395.456 184.795,395.452 184.532 C 395.449 184.269,389.042 177.647,381.214 169.817 C 373.387 161.986,366.983 155.412,366.983 155.209 C 366.983 155.005,366.809 154.839,366.597 154.839 C 366.094 154.839,360.531 149.276,360.531 148.773 C 360.531 148.561,360.374 148.387,360.181 148.387 C 359.777 148.387,360.379 148.988,336.433 124.667 C 326.414 114.491,296.487 84.385,269.928 57.765 C 243.369 31.144,221.061 8.751,220.353 8.003 C 218.618 6.165,217.545 5.313,216.967 5.313 C 216.703 5.313,216.240 4.972,215.939 4.554 C 215.638 4.137,215.206 3.795,214.978 3.795 C 214.751 3.795,214.233 3.487,213.829 3.111 C 212.867 2.216,210.688 1.139,209.840 1.139 C 209.472 1.139,209.100 0.925,209.013 0.664 C 208.855 0.188,194.284 -0.149,191.366 0.256 " stroke="none" fill="#4cc4e4" fill-rule="evenodd"></path><path id="path1" d="" stroke="none" fill="#50c4e4" fill-rule="evenodd"></path><path id="path2" d="" stroke="none" fill="#50c4e4" fill-rule="evenodd"></path></g></svg>