<svg width="400" height="380" viewBox="0 0 400 380" fill="none" xmlns="http://www.w3.org/2000/svg">
<path fill-rule="evenodd" clip-rule="evenodd" d="M191.366 0.255902C190.688 0.350902 190.133 0.587902 190.133 0.782902C190.133 0.978902 189.801 1.1389 189.396 1.1389C188.991 1.1389 188.554 1.3089 188.425 1.5179C188.296 1.7269 187.854 1.8979 187.442 1.8979C187.03 1.8979 186.595 2.1539 186.475 2.4669C186.355 2.7799 186.019 3.0359 185.728 3.0359C185.437 3.0359 185.199 3.2069 185.199 3.4159C185.199 3.6239 184.93 3.7949 184.6 3.7949C184.271 3.7949 183.345 4.4779 182.543 5.3129C181.741 6.1479 180.98 6.8309 180.852 6.8309C180.563 6.8309 177.989 9.3849 177.989 9.6719C177.989 9.9449 173.133 14.8009 172.86 14.8009C172.586 14.8009 170.019 17.3689 170.019 17.6429C170.019 17.9179 165.925 22.0109 165.65 22.0109C165.376 22.0109 162.808 24.5789 162.808 24.8529C162.808 25.1279 158.715 29.2219 158.44 29.2219C158.165 29.2219 155.598 31.7889 155.598 32.0639C155.598 32.3389 151.504 36.4329 151.229 36.4329C150.955 36.4329 148.387 38.9989 148.387 39.2729C148.387 39.5499 143.53 44.4019 143.254 44.4019C142.975 44.4019 141.176 46.2009 141.176 46.4789C141.176 46.7589 136.322 51.6129 136.043 51.6129C135.764 51.6129 133.966 53.4109 133.966 53.6899C133.966 54.0199 129.085 58.8239 128.75 58.8239C128.587 58.8239 128.114 59.2809 127.699 59.8409C126.487 61.4759 121.895 66.0339 121.46 66.0339C121.242 66.0339 121.063 66.1919 121.063 66.3839C121.063 66.6599 113.154 74.6499 98.309 89.3739C86.934 100.655 18.216 169.744 18.216 169.899C18.216 170.022 17.583 170.655 16.81 171.305C16.036 171.954 14.456 173.479 13.299 174.692C12.142 175.906 10.043 178.029 8.63401 179.41C7.22501 180.791 6.07201 182.063 6.07201 182.236C6.07201 182.408 5.56001 183.086 4.93401 183.741C4.30701 184.396 3.79501 185.186 3.79501 185.496C3.79501 185.805 3.49201 186.335 3.12101 186.673C2.09901 187.603 1.13901 189.258 1.13901 190.088C1.13901 190.495 0.92501 190.9 0.66401 190.987C-0.0239897 191.216 -0.0239897 210.681 0.66401 210.911C0.92501 210.998 1.13901 211.382 1.13901 211.766C1.13901 212.564 2.32501 214.795 2.75101 214.798C2.90801 214.8 3.03601 215.057 3.03601 215.37C3.03601 215.683 3.20701 215.939 3.41601 215.939C3.62401 215.939 3.79501 216.243 3.79501 216.615C3.79501 216.986 4.13701 217.536 4.55401 217.837C4.97201 218.138 5.31301 218.569 5.31301 218.795C5.31301 219.238 7.73001 222.011 8.11601 222.011C8.24401 222.011 8.66501 222.31 9.05101 222.676C10.341 223.896 11.436 224.707 12.364 225.13C12.869 225.36 13.283 225.692 13.283 225.867C13.283 226.043 13.614 226.186 14.019 226.186C14.424 226.186 14.862 226.357 14.991 226.565C15.12 226.774 15.642 226.945 16.151 226.945C16.661 226.945 17.078 227.116 17.078 227.324C17.078 227.533 17.676 227.704 18.406 227.704C19.137 227.704 19.734 227.875 19.734 228.083C19.734 228.292 20.578 228.463 21.609 228.463C22.641 228.463 23.59 228.634 23.719 228.843C23.848 229.051 25.385 229.222 27.135 229.222C28.884 229.222 30.421 229.051 30.55 228.843C30.679 228.634 31.619 228.463 32.638 228.463C33.657 228.463 34.596 228.292 34.725 228.083C34.854 227.875 35.462 227.704 36.076 227.704C36.689 227.704 37.192 227.533 37.192 227.324C37.192 227.116 37.533 226.945 37.951 226.945C38.368 226.945 38.71 226.774 38.71 226.565C38.71 226.357 39.041 226.186 39.446 226.186C39.851 226.186 40.288 226.015 40.417 225.806C40.546 225.598 40.983 225.427 41.389 225.427C41.794 225.427 42.125 225.256 42.125 225.047C42.125 224.839 42.339 224.668 42.6 224.667C43.115 224.667 45.161 223.03 45.161 222.619C45.161 222.314 47.703 219.734 48.003 219.734C48.278 219.734 52.372 215.641 52.372 215.366C52.372 215.091 54.939 212.524 55.214 212.524C55.487 212.524 59.583 208.431 59.583 208.158C59.583 207.885 62.915 204.554 63.188 204.554C63.462 204.554 66.793 201.222 66.793 200.949C66.793 200.675 70.125 197.343 70.398 197.343C70.514 197.343 71.372 196.579 72.306 195.646C73.24 194.712 74.004 193.853 74.004 193.738C74.004 193.466 77.335 190.133 77.607 190.133C77.881 190.133 81.973 186.037 81.973 185.764C81.973 185.489 84.541 182.922 84.815 182.922C85.089 182.922 89.184 178.829 89.184 178.556C89.184 178.284 92.517 174.953 92.789 174.953C93.104 174.953 96.392 171.603 96.412 171.262C96.421 171.1 97.376 170.114 98.533 169.07C99.691 168.027 101.263 166.518 102.027 165.718C102.791 164.918 104.407 163.296 105.62 162.113C106.832 160.93 108.455 159.322 109.225 158.539C109.996 157.757 124.331 143.345 141.082 126.512L171.537 95.9069V225.73C171.537 311.869 171.665 355.632 171.917 355.787C172.125 355.916 172.296 356.866 172.296 357.897C172.296 359.311 172.436 359.772 172.865 359.772C173.261 359.772 173.435 360.17 173.435 361.078C173.435 361.796 173.605 362.49 173.814 362.619C174.023 362.748 174.194 363.27 174.194 363.78C174.194 364.289 174.364 364.706 174.573 364.706C174.782 364.706 174.953 365.047 174.953 365.465C174.953 365.882 175.104 366.224 175.289 366.224C175.474 366.224 175.892 366.779 176.218 367.457C177.287 369.682 181.367 374.194 182.31 374.194C182.548 374.194 183.063 374.62 183.455 375.142C183.846 375.664 184.33 376.091 184.53 376.091C184.729 376.091 185.346 376.409 185.9 376.799C186.454 377.188 187.59 377.742 188.425 378.03C189.26 378.318 190.065 378.726 190.214 378.935C190.637 379.532 208.563 379.444 209.165 378.843C209.426 378.582 209.904 378.371 210.228 378.374C211.167 378.382 215.56 375.958 215.56 375.431C215.56 375.168 215.864 374.953 216.235 374.953C216.606 374.953 217.156 374.611 217.457 374.194C217.758 373.776 218.142 373.435 218.31 373.435C218.758 373.435 222.011 370.107 222.011 369.649C222.011 369.435 222.182 369.26 222.391 369.26C222.6 369.26 222.77 368.956 222.77 368.585C222.77 368.213 223.112 367.663 223.529 367.362C223.947 367.062 224.288 366.512 224.288 366.14C224.288 365.769 224.459 365.465 224.668 365.465C224.877 365.465 225.047 365.223 225.047 364.926C225.047 364.63 225.333 363.819 225.681 363.124C226.029 362.428 226.456 361.563 226.63 361.201C226.803 360.838 226.945 360.037 226.945 359.42C226.945 358.804 227.116 358.194 227.324 358.065C227.576 357.909 227.704 313.722 227.704 226.733C227.704 154.629 227.782 95.6359 227.877 95.6359C228.17 95.6359 245.161 112.721 245.161 113.015C245.161 113.168 245.619 113.632 246.178 114.047C247.814 115.259 252.372 119.851 252.372 120.285C252.372 120.504 252.527 120.683 252.717 120.683C253.125 120.683 267.398 134.858 268.496 136.354C268.911 136.919 269.384 137.381 269.547 137.381C269.882 137.381 274.763 142.185 274.763 142.515C274.763 142.794 276.561 144.592 276.84 144.592C277.119 144.592 281.973 149.446 281.973 149.726C281.973 150.004 283.772 151.803 284.05 151.803C284.327 151.803 289.184 156.655 289.184 156.932C289.184 157.205 291.752 159.772 292.026 159.772C292.301 159.772 296.395 163.866 296.395 164.141C296.395 164.437 298.972 166.983 299.272 166.983C299.407 166.983 300.138 167.708 300.897 168.594C303.848 172.04 352.923 221.4 355.417 223.43C356.247 224.106 357.139 224.661 357.4 224.663C357.661 224.666 357.875 224.839 357.875 225.047C357.875 225.256 358.131 225.427 358.444 225.427C358.757 225.427 359.013 225.598 359.013 225.806C359.013 226.015 359.355 226.186 359.772 226.186C360.19 226.186 360.531 226.357 360.531 226.565C360.531 226.774 360.948 226.945 361.458 226.945C361.967 226.945 362.49 227.116 362.619 227.324C362.748 227.533 363.345 227.704 363.947 227.704C364.548 227.704 365.146 227.875 365.275 228.083C365.404 228.292 366.354 228.463 367.385 228.463C368.416 228.463 369.26 228.634 369.26 228.843C369.26 229.344 375.971 229.344 376.281 228.843C376.41 228.634 377.359 228.463 378.391 228.463C379.422 228.463 380.266 228.292 380.266 228.083C380.266 227.875 380.863 227.704 381.594 227.704C382.324 227.704 382.922 227.533 382.922 227.324C382.922 227.116 383.162 226.945 383.456 226.945C384.088 226.945 387.231 225.363 387.413 224.953C387.483 224.796 387.802 224.668 388.122 224.668C388.751 224.668 395.446 218.073 395.446 217.453C395.446 217.247 395.617 217.078 395.827 217.078C396.036 217.078 396.503 216.395 396.865 215.56C397.227 214.725 397.653 214.042 397.812 214.042C397.972 214.042 398.102 213.7 398.102 213.283C398.102 212.865 398.273 212.524 398.482 212.524C398.691 212.524 398.861 212.131 398.861 211.651C398.861 211.171 399.075 210.565 399.336 210.304C399.689 209.951 399.81 207.531 399.81 200.867C399.81 194.034 399.698 191.866 399.336 191.746C399.075 191.659 398.861 191.09 398.861 190.481C398.861 189.872 398.691 189.374 398.482 189.374C398.273 189.374 398.102 189.032 398.102 188.615C398.102 188.197 397.932 187.856 397.723 187.856C397.514 187.856 397.343 187.618 397.343 187.326C397.343 187.035 396.919 186.395 396.401 185.903C395.883 185.412 395.456 184.795 395.452 184.532C395.449 184.269 389.042 177.647 381.214 169.817C373.387 161.986 366.983 155.412 366.983 155.209C366.983 155.005 366.809 154.839 366.597 154.839C366.094 154.839 360.531 149.276 360.531 148.773C360.531 148.561 360.374 148.387 360.181 148.387C359.777 148.387 360.379 148.988 336.433 124.667C326.414 114.491 296.487 84.3849 269.928 57.7649C243.369 31.1439 221.061 8.7509 220.353 8.0029C218.618 6.1649 217.545 5.3129 216.967 5.3129C216.703 5.3129 216.24 4.9719 215.939 4.5539C215.638 4.1369 215.206 3.7949 214.978 3.7949C214.751 3.7949 214.233 3.4869 213.829 3.1109C212.867 2.2159 210.688 1.1389 209.84 1.1389C209.472 1.1389 209.1 0.924902 209.013 0.663902C208.855 0.187902 194.284 -0.149098 191.366 0.255902Z" fill="#EC6A39"/>
</svg>
